<svg version="1.2" xmlns="http://www.w3.org/2000/svg" viewBox="0 0 1000 1000" width="1000" height="1000">
	<title>2698436-ai</title>
	<style>
		.s0 { fill: #ff6600 } 
		.s1 { fill: #ff0000 } 
		.s2 { fill: #ff5e6b } 
		.s3 { fill: #b2aeff } 
		.s4 { fill: #ffcd08 } 
		.s5 { fill: #f67159 } 
		.s6 { fill: #d84554 } 
		.s7 { fill: #f39e23 } 
		.s8 { fill: #f68962 } 
		.s9 { fill: #3e3f59 } 
		.s10 { fill: #2e2d44 } 
		.s11 { fill: #ffffff } 
		.s12 { fill: #cd4353 } 
		.s13 { fill: #00a376 } 
		.s14 { fill: #f9efcd } 
		.s15 { fill: #002734 } 
		.s16 { fill: #664341 } 
		.s17 { fill: #80b230 } 
		.s18 { fill: #6b9117 } 
		.s19 { fill: #8bc53f } 
		.s20 { fill: #4f5068 } 
		.s21 { fill: #242435 } 
		.s22 { fill: #efd7b2 } 
		.s23 { fill: #b76d5c } 
		.s24 { fill: #b25842 } 
		.s25 { fill: #eb008b } 
	</style>
	<g id="BACKGROUND">
		<g id="&lt;Group&gt;">
			<g id="&lt;Group&gt;">
				<g id="&lt;Group&gt;">
					<path id="&lt;Path&gt;" class="s0" d="m855.6 566.4c-14.2-8.2-27.8-23.6-33.9-39-3.7-9.5-2.8-21.9-3.6-32q-1.3-18.1-2-36.2c-1-22.7-1.4-45.8-8.6-67.3-6.8-20.4-21.4-40.6-42.6-47.5-18.2-5.9-33.8-6.8-43.3-26-15.7-31.7-7.3-74.3-43.4-93-20.6-10.6-44.9-10.4-67.9-8.7-23.1 1.7-46.7 4.6-69-1.5-19-5.1-35.7-16.3-53.4-24.8-17.8-8.5-38.4-14.2-57-7.6-18.9 6.7-31.4 25-39.2 43.5-7.8 18.6-12.4 38.6-22.3 56-27 47.3-81.4 27.6-122.1 51-41.3 23.9-67.4 72.4-59.4 120.3 4.9 29.1 20.7 60 7.3 86.2-11 21.5-37 29.7-56.2 44.5-42 32.4-37.1 85.3-25.9 131.2 8.1 33.1 26.8 65.9 49.2 91.5h735c21.8 0 40.4-16 43.5-37.6 4.1-28.2 6.8-60.1 5.5-81.6-2-32.2-14.2-65.1-39.5-85-9.4-7.4-19.8-13.4-29.7-20-7.5-5.1-13.8-11.9-21.5-16.4z"/>
					<path id="&lt;Path&gt;" class="s1" d="m896.9 809.3c16.5 0 27.6-16.9 21.1-32-2.2-5.3-4.4-10.6-6.6-15.8-11.2-26.6-27.3-54.8-54.9-63.3-39.2-12.1-81.6 21.4-121 9.8-22.7-6.7-38.3-26.6-55.3-43.1-51-49.4-103.6-8.7-162.1-4-36.7 2.9-74.8-15.3-98.6-43.7-18.8-22.4-55.1-28.8-80.3-13.9-23.2 13.7-38.9 37.1-55 58.9-16.3 22-35.4 44.3-61.6 52.5-33 10.3-71-4-102.6 10.3-23 10.5-36.9 33.6-52.6 53.5q-0.1 0.2-0.3 0.4c-9.7 12.3-1.1 30.4 14.6 30.4z"/>
				</g>
				<g id="&lt;Group&gt;">
					<path id="&lt;Path&gt;" class="s2" d="m620 407.7l-4.2-4.1-5.5 5.5-5.6-5.5-4.2 4.1 5.6 5.6-5.6 5.6 4.2 4.1 5.6-5.5 5.5 5.5 4.2-4.1-5.6-5.6z"/>
					<path id="&lt;Path&gt;" class="s3" d="m341.8 711.3l-4.2-4.2-5.6 5.6-5.5-5.6-4.2 4.2 5.6 5.6-5.6 5.6 4.2 4.1 5.5-5.5 5.6 5.5 4.2-4.1-5.6-5.6z"/>
					<path id="&lt;Path&gt;" class="s4" d="m221.2 568.9l-4.1-4.2-5.6 5.6-5.6-5.6-4.1 4.2 5.5 5.6-5.5 5.6 4.1 4.1 5.6-5.5 5.6 5.5 4.1-4.1-5.5-5.6z"/>
					<path id="&lt;Path&gt;" class="s3" d="m233.1 469.2l-9.6 16.5h19.2z"/>
					<path id="&lt;Path&gt;" class="s4" d="m454 220.7l-16.5-9.6v19.2z"/>
					<path id="&lt;Path&gt;" class="s4" d="m728.5 490.9l-16.5-9.6v19.2z"/>
					<path id="&lt;Path&gt;" class="s4" d="m459 460.4c0 4.7-3.8 8.6-8.5 8.6-4.8 0-8.6-3.9-8.6-8.6 0-4.7 3.8-8.6 8.6-8.6 4.7 0 8.5 3.9 8.5 8.6z"/>
					<path id="&lt;Path&gt;" class="s3" d="m368.4 323.4c0 4.6-3.7 8.3-8.3 8.3-4.5 0-8.2-3.7-8.2-8.3 0-4.5 3.7-8.2 8.2-8.2 4.6 0 8.3 3.7 8.3 8.2z"/>
				</g>
			</g>
		</g>
	</g>
	<g id="OBJECTS">
		<g id="&lt;Group&gt;">
			<g id="&lt;Group&gt;">
				<g id="&lt;Group&gt;">
					<path id="&lt;Path&gt;" class="s5" d="m800.3 776.7c-0.3 2.5-13.7 16-21.7 17.1-8 1.2-24 16-24 16h-26.3c0 0 33.7-29.7 39.4-40.5 4-12-2.3-93.7-4.6-110.3-1-7.2-2.1-17.1-3-26.1-1.2-11.8-2.1-21.9-2.1-21.9 0 0 27.4-4 42.8-2.3 2.8 5.5 4.3 14 4.8 24.2 2 40-10 105.9-10.5 116.4-0.5 13.1 6.4 16.6 5.2 27.4z"/>
					<path id="&lt;Path&gt;" class="s6" d="m805.6 632.9h-45.5c-1.2-11.8-2.1-21.9-2.1-21.9 0 0 27.4-4 42.8-2.3 2.8 5.5 4.3 14 4.8 24.2z"/>
					<path id="&lt;Path&gt;" class="s7" d="m725.8 809.9c-2.2 0-3.2-2.9-1.5-4.2q0.1-0.1 0.1-0.1c2.4-1.8 10.7-6.5 15.3-10 1.2-0.9 2.7-1.4 4.2-1.3 2.2 0.1 4.5 0.7 6.8 1.5 8.2 2.9 17.4 1.3 24-4.3q0.1-0.1 0.2-0.2c0.1-0.1 11.9-9.9 14.4-17 1.4-4.2 3.8-8 8.2-10.5 4.9 5.5 6 11.9 5.8 19.4-0.2 7.4-1.6 28.8-1.6 28.8h-6.8l-2.4-24.4c0 0-12.6 10.1-20.9 15.8q-1.9 1.3-3.3 2.4c-4.1 2.9-8.9 4.4-13.9 4.4z"/>
				</g>
				<g id="&lt;Group&gt;">
					<path id="&lt;Path&gt;" class="s8" d="m849.2 778.9c-0.2 2.5-13.7 16-21.7 17.1-8 1.2-24 16-24 16h-26.2c0 0 33.7-29.7 39.4-40.5 4-12-2.3-93.7-4.6-110.3-1-7.2-2.1-17.1-3-26.1-1.2-11.8-2.1-21.9-2.1-21.9 0 0 27.4-4 42.8-2.3 2.8 5.5 4.2 14 4.8 24.2 2 40-10 105.9-10.5 116.4-0.6 13.1 6.4 16.6 5.1 27.4z"/>
					<path id="&lt;Path&gt;" class="s6" d="m854.6 635.1h-45.5c-1.2-11.8-2.1-21.9-2.1-21.9 0 0 27.4-4 42.8-2.3 2.8 5.5 4.2 14 4.8 24.2z"/>
					<path id="&lt;Path&gt;" class="s4" d="m774.8 812.1c-2.2 0-3.2-2.9-1.5-4.2q0.1-0.1 0.1-0.1c2.4-1.7 10.7-6.5 15.3-10 1.2-0.9 2.7-1.4 4.2-1.3 2.2 0.1 4.5 0.7 6.8 1.5 8.2 2.9 17.3 1.3 24-4.3q0-0.1 0.1-0.2c0.2-0.1 12-9.9 14.4-17 1.5-4.2 3.9-8 8.3-10.5 4.9 5.5 6 11.9 5.8 19.4-0.3 7.4-1.6 24.1-1.6 24.1h-6.8l-2.4-19.7c0 0-12.6 10.1-21 15.8q-1.8 1.3-3.3 2.4c-4 2.9-8.9 4.4-13.8 4.4z"/>
				</g>
				<g id="&lt;Group&gt;">
					<path id="&lt;Path&gt;" class="s9" d="m857.5 624.1h-62.5c-26.7 0-49.3 0-49.3 0 0 0-15.4-77.9-14.1-114.6 0.4-12.3 3.5-24.8 6.6-33 3.3-8.5 5.9-13.9 5.9-13.9 0 0 62.8-26.7 98.5 0.4 0 0 3.6 5 7.5 13.5 4.1 8.9 8.5 21.7 9.2 36.6 1.3 29.1-4.8 100.9-1.8 111z"/>
					<path id="&lt;Path&gt;" class="s10" d="m850.1 476.5c-26.8 0-91.3 0.2-111.9 0 3.3-8.5 5.9-13.9 5.9-13.9 0 0 62.8-26.7 98.5 0.4 0 0 3.6 5 7.5 13.5z"/>
					<path id="&lt;Path&gt;" class="s10" d="m806 624.1h-11c-4.2-20.8-12.3-107-12.3-107 6.4 7.9 16.9 18.2 22.6 39.5 5.8 21.3 0.7 67.5 0.7 67.5z"/>
				</g>
				<g id="&lt;Group&gt;">
					<path id="&lt;Path&gt;" class="s9" d="m724.3 296.5c2.3 7.6-6.7 13.7-3 21.2 5 10 14.9 3.7 19.9 12.9 4.7 8.5 0.9 19.7 18.3 21.4 13.3 1.4 28.4-7.1 49.9 1.8 19.1 7.9 30.2-3.2 28.5-12.6-1.8-9.4-9.7-13.8-6.2-27 3.5-13.3 7.6-21.5-2.1-27.1-9.6-5.5-24 0.6-33.7-10.5-9.7-11.2-23.8-26.2-40.3-25.9-17 0.3-29.9 7.1-32 24.4-0.9 8.2-0.4 17.8 0.7 21.4z"/>
					<path id="&lt;Path&gt;" class="s10" d="m815.9 298.6q-0.7-0.8-1.5-1.4c-3.7-2.8-8.6-3.3-13.2-3.1-6.6 0.4-17.8 0.4-22.1-6.1l-42.4-5.1q-1.6 10.4-3.3 20.7c-0.6 3.6-1.1 7.8 1.2 10.7 3.8 5 12.6 3 16.8 7.8 3.8 4.1 1.9 11.1 5.1 15.6 2.1 3.1 6.2 4.3 10 4 3.7-0.2 7.3-1.7 10.8-2.9 3.5-1.3 7.2-2.4 11-2 6.5 0.8 12.7 6.7 19.2 2.6 2.7-1.7 4.4-4.7 4.6-7.8 0.4-5.1-3.2-10.5-0.9-15.1 1.4-3 4.8-4.4 6.5-7.2 2-3.4 0.9-7.8-1.8-10.7z"/>
				</g>
				<g id="&lt;Group&gt;">
					<g id="&lt;Group&gt;">
						<path id="&lt;Path&gt;" class="s2" d="m736.5 428.8c-7 13.7-36.7 53.9-47.7 55.2-4.9 4.6-8.3 7.6-8.9 7.8-2.5 0.8-11.3-5.1-13.3-10 0 0-4-5.6-3.1-7.7 0.9-2 2.6-3 3.3-5.9 0.7-2.9-0.7-7.5 2.8-13.4 3.5-5.9 34.2-44.3 36.5-48.1 4.3-17.4 9.9-53.6 16.5-59.7 4.4-2.5 13.5-3.9 17 6.7 3.6 10.5 6.3 56.8-3.1 75.1z"/>
						<path id="&lt;Path&gt;" class="s11" d="m688.8 484c-4.9 4.6-8.3 7.6-8.9 7.8-2.5 0.8-11.3-5.1-13.3-10 0 0-4-5.6-3.1-7.7 0.9-2 2.6-3 3.3-5.9 0 0 7.7-4.2 15 2.4 7.2 6.6 7 13.4 7 13.4z"/>
					</g>
					<g id="&lt;Group&gt;">
						<path id="&lt;Path&gt;" class="s8" d="m682.2 510.2c-1.2-1.6-4.4-4.3-5.7-6.5-1.2-2-1.2-6.4-3.7-10.6 2.1-2.5 5-6 7.8-9.5-3.1-10.8-12.6-8.6-12.6-8.6 0 0-5.7 6.3-9.5 10.3q-0.6 0-1.2 0.1c-7.2 0.4-15.6 4.7-21.3 12.2-5.5 0-16.3 12.3-14.9 14.3 0.9 1.3 3.2 0.8 5.3-0.6-0.1 1 1.4 1.4 3.2 1.1 0.7-0.1 1.4-0.3 2.1-0.6q0.4 0.3 0.9 0.4c3.2 1.1 6.6 0.2 10.6-2.9 3.9-3.1 7-9.5 13.3-10.4 6.3-0.9 9.9 1.3 11.9 4.4 2.1 3.1 3.1 8.2 8.2 8.9 5.2 0.8 6.8-0.4 5.6-2z"/>
						<g id="&lt;Group&gt;">
							<path id="&lt;Path&gt;" class="s6" d="m636 497.6c0 0-3.7 4.9-5.4 7.3-1.7 2.4-4.8 3.8-4.2 6.4-2.1 1.4-4.4 1.9-5.3 0.6-1.4-2 9.4-14.3 14.9-14.3z"/>
							<path id="&lt;Path&gt;" class="s6" d="m649.2 491.7c-2.8 1.4-2.3 5.3-8.4 10.7-5.2 4.6-6.3 5-8.4 6.5-2.1 1.5-0.7 2.9-0.7 2.9-0.7 0.3-1.4 0.5-2.1 0.6-2.1-5.3 4.1-6.6 8.6-10.2 7.4-6 8-9.3 11-10.5z"/>
						</g>
					</g>
				</g>
				<g id="&lt;Group&gt;">
					<path id="&lt;Path&gt;" class="s12" d="m842.6 463c0 0-35.7-0.2-66.7-0.3q-2 0-3.9 0c-10.6-0.1-20.5-0.1-27.9-0.1-4.5-1.9-7.8-6.5-9.1-8.9-0.6-1.1-0.4-2.3 0.9-3.9 7.4-9.6 9.3-22.4 4.3-33.4-2-4.3-4.8-8.6-8.6-12.7-8.1-8.8 0.4-20.5-3.1-29.7-3.6-9.3-11.9-18.4-6.5-26.1 5.4-7.6 28.2-17.1 28.2-17.1l31.8-3.3c0 0 23.6 1.1 36.1 6.9 12.4 5.7 13.3 12.4 11.5 55-1.9 42.5 10 56.4 13.7 59.9 3.7 3.5-0.7 13.7-0.7 13.7z"/>
					<path id="&lt;Path&gt;" class="s6" d="m775.9 462.7q-2 0-3.9 0c-1.6-8.9-7.5-43.3-8.7-63.4-1.5-23.2-0.4-56.7-0.4-56.7l2.4-0.2c0 0-3.1 62.8 10.6 120.3z"/>
				</g>
				<path id="&lt;Path&gt;" class="s13" d="m765.3 342.4c-0.8-0.1-1.6-0.1-2.4 0.2-0.6-3.7 0.1-7.6 0.1-7.6 0 0 0.7-0.6 2-0.4-0.3 1 0 5.1 0.3 7.8z"/>
				<g id="&lt;Group&gt;">
					<g id="&lt;Group&gt;">
						<path id="&lt;Path&gt;" class="s2" d="m729.6 423.7c0.6 0.4 40.3 23.8 69.4 9 20.3-10.3 38.1-88.7 22.4-94.2-15.6-5.6-23.5 5.7-26 12.5-2.4 6.8-13 52.2-13 52.2l-44 2.2z"/>
						<path id="&lt;Path&gt;" class="s11" d="m720.2 414.3c0 0-0.4 4.3 1.1 6.1 1.6 1.8 5.2 1.2 6.2 2.9 1 1.6 1.5 3.4 3.9 3.1 2.5-0.2 10.9-3.5 12.3-10.2 1.3-6.7-0.8-13.1-2.7-13.7-1.8-0.5-3.6 0.8-5.9-1.1-2.3-1.8-3.5-3-6.3-1.2-2.8 1.9-6.5 3.4-8.6 14.1z"/>
					</g>
					<g id="&lt;Group&gt;">
						<path id="&lt;Path&gt;" class="s8" d="m710.9 397.4c0 0 23.7 6.5 24.7 8.9 2.3 5.5-0.5 11.9-5.6 12.3-4.2 0.4-18.2-8.6-20.2-10.3-5.6-4.7-5.1-10.1 1.1-10.9z"/>
						<g id="&lt;Group&gt;">
							<path id="&lt;Path&gt;" class="s6" d="m698.5 404.4c0 0-4.8 2.4-2.1 9.2 2.2 4.5 7.9 5.6 11.3 7.2 3.4 1.6 4.9-2.8 2.6-4.8-2.3-2-10.8-7-11.8-11.6z"/>
							<path id="&lt;Path&gt;" class="s8" d="m721.6 402.7c0.1 2.9-1.2 6-4.4 6.6 1.4 1.4 1 4.2-0.4 5.5-1.4 1.3-3 2.9-5 1.3q-0.1-0.1-0.1-0.1c-0.7 0.2-1.3 0.3-2 0.4q-0.5 0.1-1 0c-0.7-0.1-1.4-0.4-2.3-1q0-0.1 0-0.1c-0.8 0.2-1.4 0.2-1.9 0.1-1.4-0.3-2-1.5-2.1-1.7v-0.1c0 0-1.1 0.4-2.4-0.4q-0.7-0.4-1.3-1.2c-1.9-2.3-2.8-6.8-2.8-6.8 0 0-1.1 0.5-2.6 1.2-2.8 1.3-7.2 3.3-9.3 3.7-3.1 0.6-4.8-1.4-4.6-2.6 0.3-1.2 5-3 9.8-5.1 4.7-2.1 11-5.5 14.6-6 5.1-0.8 17.8 3.3 17.8 6.3z"/>
							<path id="&lt;Path&gt;" class="s6" d="m695.8 405.2c0 0-1 0.5-2.5 1.3 0.5-2.6 1.7-5.1 4.2-5.4 0.1-0.1-1.8 1.3-1.7 4.1z"/>
							<path id="&lt;Path&gt;" class="s6" d="m702.5 413.6q-0.1 0.1-0.1 0.1v-0.1c0 0-1.1 0.4-2.4-0.4-0.6-2.6-1.3-6.2-0.6-8.7 0 0 0.9 4.3 3.1 9.1z"/>
							<path id="&lt;Path&gt;" class="s6" d="m706.4 415.3q0 0 0 0.1 0-0.1 0-0.1c-0.8 0.2-1.4 0.2-1.9 0.1-0.6-2.7-1-6.3-0.2-9.5 0.1-0.5-0.2 3.9 2.1 9.4z"/>
							<path id="&lt;Path&gt;" class="s6" d="m711.7 415.9q0.1 0.1 0.1 0.2-0.1-0.1-0.1-0.1c-0.7 0.2-1.3 0.3-2 0.4-0.7-2.6-1.8-6.1-1-9.1-0.1 0.6 0.4 3.9 3 8.6z"/>
							<path id="&lt;Path&gt;" class="s6" d="m717.2 409.3c0 0-3.2 3-3.8 3-0.7 0-1-4.1-0.5-4.1q0.2 0 0.5 0.2c1.2 0.6 2.5 0.9 3.8 0.9z"/>
						</g>
					</g>
				</g>
				<g id="&lt;Group&gt;">
					<path id="&lt;Path&gt;" class="s4" d="m762.4 349.5c0 0-4.5 30-3.3 38.2-2.9-4-4.5-8.6-4.5-8.6 0 0-7.2 6.8-7.2 6.5 0-0.3 2.7-11 7.1-23.6 3.9-11.3 7.1-15.6 7.1-15.6z"/>
					<path id="&lt;Path&gt;" class="s4" d="m764.8 348.6c0 0 4.5 30 3.3 38.2 2.9-4 4.5-8.6 4.5-8.6 0 0 7.2 6.8 7.2 6.5 0-0.3-2.7-11-7.1-23.6-3.9-11.3-7.1-15.6-7.1-15.6z"/>
					<g id="&lt;Group&gt;">
						<path id="&lt;Path&gt;" class="s4" d="m762.8 348c-1.3 3-13.5 26-16.5 25.7-3-0.3-3.1-4.7-4.2-8.8-0.3-0.6-0.7-1.2-1.2-2-0.9-1.5-1.9-3.5-0.8-5.7 1.7-3.3 18.5-9.9 18.5-9.9 0 0 5.6-2.2 4.2 0.7z"/>
						<path id="&lt;Path&gt;" class="s7" d="m761.4 348.9c0.5-0.7-17.9 19.5-16.4 22 1.5 2.4 5.7-5.6 16.4-22z"/>
						<path id="&lt;Path&gt;" class="s7" d="m752.8 354.7c-7.1 4.7-10.7 10.2-10.7 10.2-0.3-0.6-0.7-1.2-1.2-2 2.3-3.7 6.4-5.7 11.9-8.2z"/>
					</g>
					<g id="&lt;Group&gt;">
						<path id="&lt;Path&gt;" class="s4" d="m766 346c1.3 2.9 13.5 26 16.5 25.6 3-0.3 3.2-4.7 4.3-8.8 0.2-0.5 0.6-1.2 1.1-1.9 0.9-1.6 1.9-3.6 0.8-5.8-1.7-3.3-18.5-9.9-18.5-9.9 0 0-5.5-2.2-4.2 0.8z"/>
						<path id="&lt;Path&gt;" class="s7" d="m767.4 346.8c-0.5-0.6 18 19.6 16.4 22-1.5 2.5-5.6-5.5-16.4-22z"/>
						<path id="&lt;Path&gt;" class="s7" d="m776 352.6c7.2 4.7 10.8 10.2 10.8 10.2 0.2-0.5 0.6-1.2 1.1-1.9-2.3-3.8-6.4-5.8-11.9-8.3z"/>
					</g>
					<path id="&lt;Path&gt;" class="s7" d="m758.3 344.3c0 0-1 7.8 4.4 7.7 5.4-0.2 8-4.1 6-9.1-2-4.9-9.2-4.2-10.4 1.4z"/>
				</g>
				<g id="&lt;Group&gt;">
					<path id="&lt;Path&gt;" class="s11" d="m791.1 330.5c-0.4 1.2-9.3 18.8-12.5 19.7-2.6 0.7-8.2-6.9-13.3-7.8-0.8-0.1-1.6-0.1-2.4 0.2q-0.5 0.2-1 0.6c-0.4 0.2-5.3 5.5-7.1 7.2-1.7 1.8-2.2 2.4-4.7 1.9-2.6-0.6-3.6-10.3-4.4-14.2-0.9-3.9-1.3-6.7 0.4-9 0.6-0.7 1.9-2.2 2.8-3.3q0.3-0.3 0.4-0.5c1.8-2.3 3.5-4.7 6.4-5.3 6.7-1.7 19.3-4.6 22.7-4.2 1.7 0.3 3.4 1 4.9 2 2.4 1.8 4.5 4.5 5.8 7 2.1 4 2.4 4.4 2 5.7z"/>
					<path id="&lt;Path&gt;" class="s14" d="m783.3 317.8c-0.6 2.1-1.5 3.8-1.5 3.8 0 0-11.6 13.3-30.6 7.2 0 0-1.1-1.2-2.3-3q0.3-0.3 0.4-0.5c1.8-2.3 3.5-4.7 6.4-5.3 6.7-1.7 19.3-4.6 22.7-4.2 1.7 0.3 3.4 1 4.9 2z"/>
					<g id="&lt;Group&gt;">
						<path id="&lt;Path&gt;" class="s5" d="m725.4 282.3c-2.8-0.4-5.3 3-5.1 7.7 0.1 4.8 4.7 11.1 7.5 11.4 2.9 0.3 4.4-0.1 5.4-1.8 0.9-1.7-2.6-16.7-7.8-17.3z"/>
						<path id="&lt;Path&gt;" class="s6" d="m723.4 289.7c0-0.3-0.4-3.8 1.6-4.3 2-0.6 4.1 5.4 4.7 7.1-2.1-1-3.2 0.7-3.3 1.9-0.1 1.3 2 4.4 4.7 2.4 0.4 1.6 0.4 1.6 0.4 1.6 0 0-3.8 1.4-5.8-1.6-2.1-3.1 0.7-5.5 2.1-5.5-0.6-1.8-1.8-3.8-2.4-3.8-0.9 0-2 2.2-2 2.2z"/>
					</g>
					<g id="&lt;Group&gt;">
						<path id="&lt;Path&gt;" class="s8" d="m781.8 321.6c-2.5 8.2-13 16-19.8 15.3-6.9-0.7-10.8-8.1-10.8-8.1 0 0 4.6-2.5 3.7-6.6q-0.2-0.8-0.5-1.7c-1.8-4.6-6.5-12-6.5-12l21.5-15c0 0 0.1 7.5 3 15 2 5.1 3.9 10.2 9.4 13.1z"/>
						<path id="&lt;Path&gt;" class="s6" d="m772.4 308.5c-1.5 2.8-3.7 6-6.5 7.9-3.5 2.5-8.1 3.6-11.5 4.1-1.8-4.6-6.5-12-6.5-12l21.5-15c0 0 0.1 7.5 3 15z"/>
					</g>
					<path id="&lt;Path&gt;" class="s8" d="m736.5 275.6c-4.8 0.8-8.1 5.4-7.3 10.3 1.4 9 4.7 25 10.3 28.1 6.2 3.4 22.9-1.3 28.2-8.7 5.3-7.3 5-23 5-23 0 0-10.2-3.4-12.1-15.9-8.7 8.1-17.5 8-24.1 9.2z"/>
					<g id="&lt;Group&gt;">
						<path id="&lt;Path&gt;" class="s8" d="m778.4 279.1c2.9-0.2 5.2 3.2 4.9 7.9-0.4 4.8-5.1 10.9-8 11.2-2.8 0.2-4.4-0.3-5.3-2-0.8-1.8 3.2-16.6 8.4-17.1z"/>
						<path id="&lt;Path&gt;" class="s6" d="m780.2 286.6c0-0.3 0.5-3.7-1.5-4.4-2-0.6-4.3 5.3-4.9 7 2.1-0.9 3.1 0.8 3.2 2 0.1 1.3-2.1 4.4-4.8 2.2-0.4 1.6-0.4 1.6-0.4 1.6 0 0 3.7 1.5 5.9-1.4 2.2-2.9-0.6-5.5-2-5.6 0.7-1.7 1.9-3.7 2.5-3.7 1 0 2 2.3 2 2.3z"/>
					</g>
					<path id="&lt;Path&gt;" class="s6" d="m743.7 283.8c-0.6-0.1-1.2 12.5-0.7 12.9 0.6 0.5 6.2 0.4 5.9-0.3-0.4-0.7-3.5-0.5-4.2-1.1-0.6-0.6-0.4-11.4-1-11.5z"/>
					<path id="&lt;Path&gt;" class="s6" d="m741.4 303.3c0 0 2.4 2.5 7 2.2 4.6-0.4 6.9-6.5 6.9-6.5 0 0-5.4 5-13.9 4.3z"/>
					<g id="&lt;Group&gt;">
						<path id="&lt;Path&gt;" class="s15" d="m753.5 286.1c-1.5-0.6-3.2 0.3-3.5 1.8-0.2 1 0.3 2 1.1 2.5 1 0.7 2.6 0.5 3.3-0.6 1-1.2 0.5-3.1-0.9-3.7z"/>
						<path id="&lt;Path&gt;" class="s16" d="m748.9 283.2c0 0 2.5-1 4.2-0.7 1.8 0.3 4.2 1.5 4.2 1.5 0 0-1.1-3.5-3.9-3.8-2.8-0.4-4.5 3-4.5 3z"/>
					</g>
					<g id="&lt;Group&gt;">
						<path id="&lt;Path&gt;" class="s15" d="m738.8 286.1c-1.4-0.6-3.2 0.3-3.5 1.8-0.1 1 0.4 2 1.2 2.5 1 0.7 2.6 0.5 3.3-0.6 0.9-1.2 0.4-3.1-1-3.7z"/>
						<path id="&lt;Path&gt;" class="s16" d="m732.9 283.5c0 0 2.5-1 4.2-0.7 1.8 0.3 4.2 1.5 4.2 1.5 0 0-1.1-3.5-3.9-3.8-2.8-0.4-4.5 3-4.5 3z"/>
					</g>
				</g>
			</g>
			<g id="&lt;Group&gt;">
				<g id="&lt;Group&gt;">
					<g id="&lt;Group&gt;">
						<path id="&lt;Path&gt;" class="s17" d="m79.9 666.3c1.5 8.6-1.9 19 4.1 25.4 4.2 4.4 11.5 4.9 15.3 9.6 4 5.2 2.1 12.5 1.8 19-0.4 9.6 3.5 19.2 10.1 26.2 3.4 3.5 10.1 10.7 15.9 10.9 1.4 0.1 2.7-0.3 4-1.2q0.6-0.4 1.1-0.9c10.6-9.5 8.8-30.3 2.6-41.2-4.2-7.4-11.1-14.1-11.2-22.6-0.2-6.8 4.2-13.3 3.1-20-1.5-9.1-11.8-13.6-16.9-21.2-7.1-10.5-3.5-25.5-9.8-36.5-5.3-9.2-17.7-13.6-27.6-9.7-9.9 3.9-16 15.6-13.6 25.9 3.2 13.8 18.6 22.4 21.1 36.3z"/>
						<path id="&lt;Path&gt;" class="s18" d="m127.1 757.4c1.4 0.1 2.7-0.3 4-1.2q0.6-0.4 1.1-0.9c-0.8-2.7-1.7-5.4-2.5-8-1.9-6.3-3.7-12.6-5.7-18.9-3.9-12.3-8.2-24.6-12.7-36.7q-6.7-18.2-14.2-36.1-3.7-8.9-7.6-17.6c-2.6-5.9-5-12.4-8.6-17.7-1.5-2.2-5-0.8-4.2 1.8 1.7 6.2 5 12.2 7.6 18.1q3.9 9.1 7.7 18.2 7.4 17.6 14 35.5c4.4 11.9 8.6 23.9 12.6 36 2.1 6.3 4.1 12.5 6.1 18.8 0.8 2.8 1.6 5.8 2.4 8.7z"/>
					</g>
					<g id="&lt;Group&gt;">
						<path id="&lt;Path&gt;" class="s19" d="m161.5 656.7c1.7 8.6 8.6 17 5.3 25.2-2.3 5.6-8.9 8.7-10.7 14.5-1.9 6.2 2.5 12.3 5.2 18.3 3.9 8.8 3.7 19.2 0.1 28.1-1.9 4.4-5.5 13.6-10.8 15.9-1.3 0.6-2.7 0.8-4.2 0.4q-0.7-0.2-1.4-0.5c-13.3-5-19.2-25-17.4-37.4 1.2-8.5 5.3-17.2 2.3-25.2-2.3-6.4-8.8-10.8-10.2-17.5-1.9-9 6.1-16.9 8.1-25.8 2.8-12.5-6-25.1-4.1-37.6 1.6-10.5 11.6-19.1 22.2-19 10.6 0 20.5 8.6 22 19.1 2.1 14-9.2 27.6-6.4 41.5z"/>
						<path id="&lt;Path&gt;" class="s17" d="m150.6 758.7c-1.3 0.6-2.7 0.8-4.2 0.4q-0.7-0.2-1.4-0.5c-0.2-2.8-0.3-5.7-0.5-8.4-0.6-6.5-1.1-13.1-1.6-19.6-0.8-12.9-1.2-25.9-1.5-38.8q-0.3-19.4 0.1-38.8 0.2-9.6 0.7-19.2c0.4-6.4 0.2-13.3 1.6-19.6 0.6-2.5 4.4-2.5 4.6 0.2 0.7 6.4-0.3 13.2-0.5 19.6q-0.4 9.9-0.6 19.7-0.5 19.1-0.2 38.2c0.2 12.7 0.7 25.4 1.4 38.1 0.3 6.6 0.7 13.2 1.2 19.7 0.2 3 0.6 6 0.9 9z"/>
					</g>
					<g id="&lt;Group&gt;">
						<path id="&lt;Path&gt;" class="s17" d="m212.8 666.3c-1.5 8.6 1.9 19-4.2 25.4-4.1 4.4-11.4 4.9-15.2 9.6-4 5.2-2.1 12.5-1.8 19 0.4 9.6-3.6 19.2-10.2 26.2-3.3 3.5-10 10.7-15.8 10.9-1.4 0.1-2.8-0.3-4-1.2q-0.6-0.4-1.2-0.9c-10.5-9.5-8.8-30.3-2.6-41.2 4.3-7.4 11.2-14.1 11.3-22.6 0.1-6.8-4.2-13.3-3.1-20 1.5-9.1 11.8-13.6 16.9-21.2 7.1-10.5 3.5-25.5 9.8-36.5 5.3-9.2 17.7-13.6 27.6-9.7 9.9 3.9 16 15.6 13.6 25.9-3.2 13.8-18.6 22.4-21.1 36.3z"/>
						<path id="&lt;Path&gt;" class="s18" d="m165.6 757.4c-1.4 0.1-2.8-0.3-4-1.2q-0.6-0.4-1.2-0.9c0.9-2.7 1.8-5.4 2.6-8 1.8-6.3 3.7-12.6 5.7-18.9 3.9-12.3 8.2-24.6 12.7-36.7q6.7-18.2 14.2-36.1 3.6-8.9 7.6-17.6c2.6-5.9 4.9-12.4 8.6-17.7 1.4-2.2 4.9-0.8 4.2 1.8-1.7 6.2-5.1 12.2-7.6 18.1q-3.9 9.1-7.7 18.2-7.4 17.6-14 35.5c-4.5 11.9-8.6 23.9-12.6 36-2.1 6.3-4.1 12.5-6.1 18.8-0.9 2.8-1.6 5.8-2.4 8.7z"/>
					</g>
					<path id="&lt;Path&gt;" class="s9" d="m99.3 747.7c0 0 1.3 41.4 12.3 48.9 16.8 0 55.9 0 72.7 0 11-7.5 12.3-48.9 12.3-48.9z"/>
					<path id="&lt;Path&gt;" class="s14" d="m95.9 789.5l2.9 9c2.2 6.9 9.6 11.7 18 11.7h62.3c8.4 0 15.7-4.8 17.9-11.7l2.9-9z"/>
				</g>
				<path id="&lt;Compound Path&gt;" fill-rule="evenodd" class="s9" d="m291.4 703.6h-5.5c-0.4 7.6-2.3 15.2-3.7 22.5l-4.6 24.7q-2.4 12.6-5 25.2c-0.9 4-1.8 8.1-2.6 12.2-0.4 1.5-0.7 3.2-1.1 4.8v17.2h-89.8v-17.5c-0.7-2.8-1-5.6-1.5-8.3q-1-5.8-2-11.6-2.2-11.9-4.5-23.7c-2.8-15.1-6.4-30.3-8.3-45.5h-6.6v-9.7h135.2zm-26.1 7.4c-0.9 1-1.8 2-2.6 2.9q-1.7 2-3.5 4c3.7 3.8 7.5 7.6 11.1 11.7q0-0.1 0.1-0.2c1.6-1.8 3.2-3.7 5-5.4q-3.9-5.4-8.1-10.6-1-1.1-2-2.4zm11 19q-1.4 1.5-2.7 3-0.1 0.1-0.2 0.2 0.9 1.2 1.8 2.4 0.5-2.8 1.1-5.6zm-6.3 32.8q-0.8 1-1.6 1.9 0.6 0.6 1.1 1.1 0.3-1.5 0.5-3zm-80.8 26.3q0.9-1.4 2-2.7-1.2-1.1-2.3-2c-2.3-1.9-4.8-3.8-7.1-6 0.7 3.6 1.4 7.1 1.8 10.7zm54.7-85.5c1.4 1.2 2.8 2.4 4 3.5q4.3 3.7 8.3 7.7 1.6-1.8 3.2-3.7c0.9-1.1 1.9-2.3 2.9-3.6-1-1.2-1.9-2.5-2.7-3.9zm27.5 51.3c-2.3-1.3-4.3-3.5-6.2-5.3q-1.7-1.7-3.3-3.3-3.1 3.5-6.2 7.1c3.3 2.8 6.6 5.5 9.7 8.5q0-0.1 0.1-0.2c1.8-2.1 3.6-4.6 5.8-6.3q0.1-0.3 0.1-0.5zm-13.5 15.9q2.1-2.6 4.3-5.2c-3.4-2.6-6.6-5.5-9.8-8.3q-0.8 0.9-1.5 1.8-2.9 3.3-5.7 6.6 4.9 4.4 9.8 8.8 1.4-1.8 2.9-3.7zm-6.4 8.3q-5.1-4.4-10.1-8.8-2.9 3.4-5.8 6.8-0.5 0.5-0.9 1.1 3.3 2.9 6.5 5.8c1.4 1.3 3 2.6 4.5 4 1.7-3.1 3.7-6 5.8-8.9zm-20-3.7q0.6-0.8 1.2-1.6 2.7-3.2 5.3-6.5-6.3-5.7-12.7-11.3-3.5 3.9-7.1 7.7 6.6 5.8 13.2 11.6 0 0 0.1 0.1zm-37.6 7.8c1.5-1.5 3-3 4.4-4.6q0.5-0.4 0.9-0.9-2-1.7-4.1-3.5-3.1-2.9-6.3-5.7-2.5 3.4-5.2 6.7c2.8 1.8 5.3 4 7.8 6.1q1.2 1 2.5 1.9zm8.5-8.9q3.2-3.5 6.4-6.9 1.3-1.4 2.5-2.8-1.8-1.5-3.6-3.1-4.2-3.7-8.5-7.4-1.1 1.6-2.2 3.1c-1.9 2.5-3.7 5.1-5.6 7.6q3.4 3 6.7 5.8 2.2 1.8 4.3 3.7zm-10.4-68.1q-3 3.7-6 7.4 5.4 4.6 10.8 9.3 3.6-4.4 7.4-8.7c-3.6-3.2-7.2-6.6-10.3-10.2-0.6 0.7-1.4 1.4-1.9 2.2zm25.9-2c-2.4 3-5.1 6-7.6 9q0.8 0.7 1.6 1.4 4.1 3.6 8.1 7.2 1.9-2.2 3.9-4.4 1.7-2 3.5-4c-3.1-2.9-6.6-5.9-9.5-9.2zm16.3 7.5q-0.3 0.4-0.6 0.7 6.9 6.2 13.5 12.6 0.1 0 0.1 0 1-1.1 2-2.3 1.8-2.1 3.6-4.1-3.9-4-7.9-8c-1.5-1.6-3.3-3.1-4.9-4.9-1.7 2.2-4 4.1-5.8 6zm-3.9 4.4q-1.9 2.1-3.8 4.3-1.8 2-3.6 4 4.5 4 9 8 2.4 2.1 4.9 4.3 3.5-3.9 7-7.8-0.2-0.2-0.4-0.4-6.6-6.2-13.1-12.4zm-1.1 29.1q2.1-2.3 4.1-4.6-2.4-2.2-4.8-4.3-4.4-4-8.8-8-3.6 4.3-7.1 8.6 2.9 2.7 5.9 5.3 3.7 3.3 7.4 6.6 1.6-1.8 3.3-3.6zm0.1 6.5q6.2 5.5 12.5 11 2.7-3.4 5.5-6.7 0.8-0.9 1.5-1.8-0.1-0.1-0.2-0.2-6-5.2-12-10.5-2 2.3-4 4.6-1.7 1.8-3.3 3.6zm22.9-1.4q3.1-3.7 6.2-7.3-0.2-0.3-0.4-0.5-5.5-5.3-11-10.6-3.4 3.9-6.9 7.7 5.9 5.2 11.8 10.4 0.1 0.1 0.3 0.3zm-45-33.4q-3.5 4.4-7.1 8.9 4.8 4.2 9.5 8.5 3.5-4.4 7.2-8.6-4-3.7-8-7.4-0.8-0.7-1.6-1.4zm-10.8 13.5q-3.5 4.3-6.9 8.7 0.8 0.6 1.6 1.3 4.1 3.5 8.2 7 3.3-4.3 6.6-8.6-4.8-4.2-9.5-8.4zm-9.9 12.5q-2.1 2.8-4.3 5.6c-1.4 1.7-2.5 3.8-4.5 4.7 2.8 2 5.3 4.4 7.9 6.6q1.4 1.2 2.9 2.5c1.8-2.6 3.6-5.1 5.4-7.7q1.2-1.5 2.3-3.1-4.4-3.8-8.7-7.7-0.5-0.5-1-0.9zm28.3 17.9q3.6-3.9 7.2-7.8-3.6-3.2-7.3-6.4-2.8-2.6-5.7-5.1-3.4 4.2-6.6 8.5 4.3 3.8 8.7 7.6 1.9 1.6 3.7 3.2zm52-27.4c-3.7-3.9-7.2-7.9-10.9-11.7q-1.7 1.9-3.3 3.9-1.1 1.2-2.2 2.4 5.7 5.5 11.3 11.1 0.5-0.5 1-1 2-2.4 4.1-4.7zm-30.6-29.8h-12.5c2.4 2 4.7 4.1 7 6.2q0.7-0.8 1.4-1.6c1.3-1.4 2.6-3.1 4.1-4.6zm-22.9 0h-13.7c2.7 2.2 5.2 4.5 7.8 6.9 1.9-2.3 3.8-4.7 5.9-6.9zm-23.6 0h-16.2q5 3.8 9.9 7.8l6-7.4q0.1-0.2 0.3-0.4zm-7.1 14.3c-2.5 3.2-5 6.6-8 9.3 2.3 1.3 4.4 3.2 6.4 4.8q2.7 2.2 5.3 4.4 3.4-4.5 6.8-8.9-5.3-4.8-10.5-9.6zm-9.3 12.6c1.1 5.8 2.1 11.7 3.1 17.4q0.1 0.9 0.3 1.9c0.5-0.9 1.2-1.8 1.9-2.8q2.4-3.4 4.9-6.8-2.9-2.6-5.8-5.3c-1.5-1.4-3.1-2.8-4.4-4.4zm4.9 27.9q1.2 6.9 2.4 13.9 0 0.5 0.1 1.1 0.3 0.1 0.6 0.3c1.5-2.7 3-5.3 4.7-7.8q-1.5-1.5-3.1-2.9c-1.5-1.5-3.1-3-4.7-4.6zm15.6 30.7h0.5q-0.1-0.1-0.3-0.3-0.1 0.2-0.2 0.3zm19.1 0q-2.6-2.1-5.1-4.2-2.8-2.2-5.5-4.5-0.4 0.4-0.8 0.9c-1.5 1.4-2.9 2.9-4.3 4.5 1.3 1 2.6 2.1 3.7 3.3zm8.3 0c1.4-2.2 3.1-4.2 4.6-6.1q1.3-1.8 2.7-3.6-0.4-0.4-0.8-0.7-6.5-5.6-13-11.2-1.2 1.4-2.5 2.7-3.2 3.4-6.5 6.8 2.6 2.2 5.2 4.4 2.9 2.4 5.9 4.9c1.1 0.9 2.2 1.8 3.2 2.8zm4.4 0h14.2q-1-1-2.1-1.9-3.1-2.6-6.2-5.2-1.6 1.9-3.3 3.9c-0.9 1-1.7 2.1-2.6 3.2zm23.5 0h14.2q-4.3-3.6-8.5-7.2c-1.8 2.4-3.7 4.8-5.7 7.2zm19.6-18.8q-1.6-1-3.2-2.2-2 2.5-3.9 4.9-1.7 2.2-3.4 4.4 4.1 3.7 8.1 7.5c0.5-3.5 1.1-6.9 1.7-10.4q0.3-2.1 0.7-4.2zm5.5-29.5q-2.1-1.9-4-3.9-2.1 2.3-4.2 4.7-0.4 0.5-0.8 0.9 2.3 2.3 4.6 4.7c0.8 0.9 1.7 1.9 2.6 2.9q0-0.1 0-0.3 0.9-4.5 1.8-9zm-8.6-37.2h-1q0.3 0.2 0.6 0.5 0.2-0.3 0.4-0.5zm-98.4 0c2.1 7.2 3.7 14.6 5.2 22 2.1-3.6 5-7 7.7-10.2q-6-5.8-11.8-11.8zm114.6 0h-10.7c-0.7 1.3-1.6 2.6-2.6 3.8q1.2 1.4 2.4 2.8c2.6 3 5 6.1 7.3 9.4 0.9-5.4 1.9-10.8 3.6-16z"/>
			</g>
			<g id="&lt;Group&gt;">
				<g id="&lt;Group&gt;">
					<path id="&lt;Path&gt;" class="s14" d="m389.7 582.2v220.3h-10.3v-220.3z"/>
					<path id="&lt;Path&gt;" class="s14" d="m389.7 765.8v10.2h-121v-10.2z"/>
				</g>
				<g id="&lt;Group&gt;">
					<g id="&lt;Group&gt;">
						<path id="&lt;Path&gt;" class="s10" d="m584.2 643.6h-68.4c-17.5 0-31.7-14.2-31.7-31.6v-122.4c0-17.5 14.2-31.7 31.7-31.7h68.4c17.5 0 31.7 14.2 31.7 31.7v122.4c0 17.4-14.2 31.6-31.7 31.6z"/>
						<g id="&lt;Group&gt;">
							<path id="&lt;Path&gt;" class="s10" d="m524.7 671.9v82.1h-11.1v-82.1z"/>
							<path id="&lt;Path&gt;" class="s10" d="m460.2 805.4h-32.6l11.9-10.4 75.2-4.1 79.6 5.1 7.9 8.9c0 0-140.6 1.9-142 0.5z"/>
							<path id="&lt;Path&gt;" class="s20" d="m524.7 671.9v82.1h-5.9v-82.1z"/>
							<path id="&lt;Path&gt;" class="s10" d="m528.9 805.3h-21v-68.8c0-2.3 1.9-4.2 4.2-4.2h12.6c2.3 0 4.2 1.9 4.2 4.2z"/>
							<g id="&lt;Group&gt;">
								<path id="&lt;Path&gt;" class="s10" d="m461.1 686.2c1.4 0 108.4 0 115.3 0 6.9 0 12.4-2 13.3-14-24.3 0-144.6 0-144.6 0 0 0 0 14 16 14z"/>
								<path id="&lt;Path&gt;" class="s9" d="m596 666.5v8.5h-156.7v-8.5c0 0 156.2 0 156.7 0z"/>
								<path id="&lt;Path&gt;" class="s10" d="m456.6 652.6c1.5 0 117.6 0 125 0 7.5 0 13.4 2 14.4 13.9-26.3 0-156.7 0-156.7 0 0 0 0-13.9 17.3-13.9z"/>
							</g>
						</g>
					</g>
					<g id="&lt;Group&gt;">
						<g id="&lt;Group&gt;">
							<g id="&lt;Group&gt;">
								<path id="&lt;Path&gt;" class="s10" d="m457.5 598.2c0 0-8.5 16.8-8.8 17.6-0.3 0.9-63.1 5.6-78.1 16.8-10.6 19.1-13.2 33.7-11.2 38.7 2.1 5 26.4 102.2 27.3 104.3 0.9 2-0.6 17-0.6 17 0 0 63.2 19.4 63.5 17.9 0.3-1.4-3.5-17.9-5.6-29.9-2.1-12.1-37-113.7-35.8-114.5 1.1-0.9 63.4-5.6 77.5-9.2 14.1-3.5 27-59 27-59z"/>
								<path id="&lt;Path&gt;" class="s10" d="m449.6 810.5h-96c0 0 2.3-8.3 10.8-11.6 7.6-3 20.1-10.7 24.8-12 6.6-0.7 53.2 14 60.4 23.6z"/>
							</g>
							<g id="&lt;Group&gt;">
								<path id="&lt;Path&gt;" class="s9" d="m561.5 645.5c-2 4.1-6.7 7.5-12.2 10.2-12.3 6-28.7 8.6-28.7 8.6 0 0-4.3 0.6-10.1 0.8-2.8 0.1-6.1 0-9.3-0.2-8-0.7-16-2.9-17.9-8.8-4.1-13 11.8-30.9 12.7-31.7 0.9-0.9 2.9-24.1 2.9-24.1h62.9c0 0 5.8 32-0.3 45.2z"/>
								<path id="&lt;Path&gt;" class="s10" d="m561.8 600.3h-10.7c2.1 23.3-0.5 32-8.9 38.8-6.5-9.5-18.2-11.1-25.9-11-5.3 0-10.1 2.6-13.2 6.8-9.1 13-5.4 24-1.9 30 3.2 0.2 6.5 0.3 9.3 0.2 5.8-0.2 10.1-0.8 10.1-0.8q0 0 0.1 0 0 0 0 0 0 0 0.1 0 0 0 0 0 0.2-0.1 0.6-0.1 0 0 0 0 0.3-0.1 0.8-0.2 0 0 0 0 0.3 0 0.6-0.1 0 0 0 0c0.9-0.2 2.2-0.4 3.7-0.8q0 0 0 0 1.3-0.3 2.8-0.6 0 0 0 0 1-0.3 2.1-0.5 0 0 0.1-0.1 0.5-0.1 1-0.2 0 0 0 0 1.1-0.3 2.2-0.6 0.1-0.1 0.2-0.1 0.5-0.1 1.1-0.3 0 0 0 0 0.6-0.2 1.1-0.4 0.1 0 0.2 0 0.5-0.1 1-0.3 0.1 0 0.2-0.1 1.1-0.3 2.2-0.7 0.2-0.1 0.3-0.1 0.4-0.2 0.9-0.3 0.1-0.1 0.3-0.1 0.5-0.2 1-0.4 0.2-0.1 0.3-0.1 0.4-0.2 0.8-0.3 0.2-0.1 0.4-0.2 0.4-0.1 0.7-0.3 0.2-0.1 0.4-0.1 0.5-0.2 1-0.5 0.2 0 0.4-0.1 0.3-0.2 0.6-0.3 0.3-0.1 0.5-0.2 0.3-0.2 0.6-0.3 0.2-0.1 0.4-0.2 0 0 0 0c5.5-2.7 10.2-6.1 12.2-10.2 6.1-13.2 0.3-45.2 0.3-45.2z"/>
								<path id="&lt;Path&gt;" class="s9" d="m499.9 626.6c-8.9 2.9-16.7 17.1-17.6 24.2-0.9 7-5.3 161.6-5.3 161.6 0 0 32.6-20.1 57.7-16.5-3.5-19.7-3.8-34.1-3.8-34.1 0 0 5.2-100.4-1-115-6.2-14.5-15-25.1-30-20.2z"/>
								<path id="&lt;Path&gt;" class="s10" d="m477 812.4l90.6 1.1c0 0-1.7-6.8-7-9.7-5.3-3-20.6-12.3-31.7-15-22.1-5.2-51.9 23.6-51.9 23.6z"/>
							</g>
						</g>
						<g id="&lt;Group&gt;">
							<path id="&lt;Path&gt;" class="s7" d="m386.4 580.9l12.7-2.4c0 0 15.5-0.3 23.5-0.8 7.9-0.6 38.3-7.8 47.2-25.9 9.3-18.6 17.9-85.7 1.9-79.1-11 12.4-35.6 65.9-35.6 65.9 0 0-38.8 6.8-42.6 9.7-3.8 2.9-5 11.4-5 11.4 0 0-7.9 1.2-8.8 2.4-0.9 1.2-2.1 8.8-0.6 10.6 1.5 1.7 7.3 8.2 7.3 8.2z"/>
							<g id="&lt;Group&gt;">
								<path id="&lt;Path&gt;" class="s11" d="m345.7 582.4h36.8c0 0-6.8-14.1-17.7-13.9-10.9 0.3-17.9 10.2-19.1 13.9z"/>
								<path id="&lt;Path&gt;" class="s6" d="m360.5 568.6c0 0-5.3 0.4-6.6 1.2-1.2 0.9-1.7 2.5-1.7 2.5 0 0-3.4 1.3-3.8 2.2-0.5 0.9-0.8 2.7-0.8 2.7 0 0-2.3 1-2.7 2.1-0.4 1-0.3 2.8 0.8 3.1 1.1 0.4 2.6-2.1 2.6-2.1 0 0 2.6-1 3.2-2.7 2.2 0.3 4.4-1.5 4.9-4.5 3.1-1.8 4.1-4.5 4.1-4.5z"/>
								<path id="&lt;Path&gt;" class="s8" d="m384.5 582.8c-1.8 0.9-13.3 0.2-17.1-0.2-3.1-3.3 7.5-4.2 7.5-4.2 0 0 0.1-1.8-1.5-4.4-1.7-2.5-5.7-4.7-6.9-4.9-1.3-0.2-3.2 2.4-5.4 3.5-1.7 0.8-4.7 1.6-4.7 0.5 0.1-1 3.3-4.3 5.9-6.8 2.2-2 5.4-2.7 8.3-1.7 4 1.5 9.3 3.6 11.9 4 4 0.5 6.8 4.5 7.3 8.2 0.6 3.6-3.4 5.1-5.3 6z"/>
								<path id="&lt;Path&gt;" class="s6" d="m374.9 578.4c0 0 0.1-1.8-1.5-4.4-1.7-2.5-5.7-4.7-6.9-4.9 10.7 1.2 14.2 9.3 14.2 9.3z"/>
							</g>
						</g>
						<g id="&lt;Group&gt;">
							<path id="&lt;Path&gt;" class="s4" d="m562.9 603.1c0 0-33.1 0.2-63.3 0.3q-1.5 0-3.1 0c-23.5 0.1-44.3 0-45-0.3-1.6-0.9-4.1-9.9-3.7-11.5 0.5-1.6 11.2-7.6 11.2-7.6l1.9-14.1c0 0 6.6-92.7 10.8-97.2 2.8-2.9 13.1-6.5 20.2-8.7 4.1-1.2 7.2-2.1 7.2-2.1 6.9-2 27.3-2 27.3-2 0 0 6.8 2.3 14.4 5.1 9.2 3.3 19.6 7.1 20.5 8.1 1.8 1.8-0.6 103.8-0.6 103.8 0 0 5.2 9.9 6.2 14.8 1 5-4 11.4-4 11.4z"/>
							<path id="&lt;Path&gt;" class="s7" d="m500.4 568.5c-1.8 14.1-1.3 27.6-0.8 34.9q-1.5 0-3.1 0c0.1-4 0.2-10.8 0.6-22 0.8-24.7 12.4-109.3 12.4-109.3l2.3-1.3c0 0-8.8 76.9-11.4 97.7z"/>
							<path id="&lt;Path&gt;" class="s7" d="m540.8 465c-2.6 12.1-14.2 21.7-14.2 21.7 0 0-7.3-11.7-10.1-12.8-2.9-1.1-7.7 3.3-7.7 3.3 0 0 0 0-4.2-1.5-4.2-1.6-6.9 3.1-14.6 9.2-0.3-4.8 1.1-15.5 1.9-20.9 4.1-1.2 7.2-2.1 7.2-2.1 6.9-2 27.3-2 27.3-2 0 0 6.8 2.3 14.4 5.1z"/>
							<path id="&lt;Path&gt;" class="s7" d="m520.7 514.5h26.5c0 0 5.9 24.9-11.2 27-17 2.1-15.3-27-15.3-27z"/>
						</g>
						<g id="&lt;Group&gt;">
							<g id="&lt;Group&gt;">
								<path id="&lt;Path&gt;" class="s21" d="m370.9 526.1l1.7-3.3 75.1-0.3 20.6 55h-3.2z"/>
								<path id="&lt;Path&gt;" class="s9" d="m370.9 526.1l74.9 0.2 19.3 51.2h-74.8z"/>
							</g>
							<path id="&lt;Path&gt;" class="s21" d="m390.3 577.5v5.8h74.8v-5.8z"/>
							<path id="&lt;Path&gt;" class="s9" d="m465.1 583.3h41.4v-5.9l-41.4 0.1z"/>
						</g>
						<g id="&lt;Group&gt;">
							<g id="&lt;Group&gt;">
								<path id="&lt;Path&gt;" class="s4" d="m609.8 576.8c-30.1-7.4-44.3-9.5-48.5-18.4-4.2-8.9-12.1-79.1 0-85.3 0 0 5.8 2.2 11.6 13.8 5.8 11.6 36.6 76.2 36.9 89.9z"/>
								<path id="&lt;Path&gt;" class="s7" d="m609.8 576.8c-30.1-7.4-44.3-9.5-48.5-18.4-4.2-8.9-12.1-79.1 0-85.3 0 0-4.5 8.5 0.2 32.6 4.7 24.1 9.4 43.5 9.4 42.6 0-0.9 19.6-2.4 20.8-0.3 1.2 2-11.7 4.7-10.9 4.7 0.9 0 23.1 4.4 29 24.1z"/>
								<path id="&lt;Path&gt;" class="s4" d="m552.7 583.8c-5-0.3-8.4-0.6-8.7-1-3.2-3.5 0-15.1 0-15.1 0 0 3.3-5.7 5.1-5.7 1.7 0 7.6 0.1 7.6 0.1 0 0 2-8.5 7.3-8.5 5.3 0 44.1 13.5 45.8 23.2 1.4 7.6-38.8 8-57.1 7z"/>
								<path id="&lt;Path&gt;" class="s7" d="m609.8 576.8c-10.6-12.4-40.3-17.4-43.8-17.4-3.5 0-6.3 6.7-6.3 6.7l-7.6-1.1c0 0 2.6 1.5 4.2 7.7 0.6 6-1.5 9.3-3.6 11.1-5-0.3-8.4-0.6-8.7-1-3.2-3.5 0-15.1 0-15.1 0 0 3.3-5.7 5.1-5.7 1.7 0 7.6 0.1 7.6 0.1 0 0 2-8.5 7.3-8.5 5.3 0 44.1 13.5 45.8 23.2z"/>
							</g>
							<g id="&lt;Group&gt;">
								<path id="&lt;Path&gt;" class="s6" d="m523.4 564.6c0 0-5.2-0.4-7.1 0.2-1.9 0.5-8.4 13-8.1 14.9 0.3 1.9 1.9 2.4 2.9 1 0.6-0.8 6.5-9.3 6.5-9.3 0 0 14.1 4.3 15.6 3.8 1.5-0.6 6.1-4.2-9.8-10.6z"/>
								<path id="&lt;Path&gt;" class="s6" d="m538.5 580.7c0 0-2.9 2-5.2 1.4-2.2-0.7-15.3-3.6-15.3-6.6 0-3 3.7-1.5 4.1-1.4 0.4 0 2.9 1.8 6.3 1.3 3.5-0.5 5.5-1.9 8 0.2 2.5 2.1 2.1 5.1 2.1 5.1z"/>
								<path id="&lt;Path&gt;" class="s8" d="m546.3 582.4q-1.2 0.3-2.3 0.4c-5.2 0.2-9.3-4.3-9.3-4.3 0 0 0 5.8-2.5 5.6-2.4-0.1-1.6-7.2-1.4-13.9-1.5 2.2-3 10.2-3.8 12.7-0.6 1.8-1.4 1.2-2.7 1.1-3.4-0.3-1-4.4 0.9-14.3-2.1 1.9-4.8 11.5-5.4 12.9-0.6 1.5-2.7 2.5-4 0.8-1.3-1.8 5.4-20.1 7.3-20.3 2-0.1 3.6 1.2 3.7 1.9 0 0 0.7-1.2 2.4-1.2 1.8 0 3.5 1.6 3.5 1.6 0 0 0.7-1.1 2.4-1.2 1.8-0.2 11.1 4.2 13.3 5.1 2.2 0.9 4.3 11-2.1 13.1z"/>
							</g>
						</g>
						<g id="&lt;Group&gt;">
							<g id="&lt;Group&gt;">
								<g id="&lt;Group&gt;">
									<path id="&lt;Path&gt;" class="s6" d="m512.9 474.4c0 0 0 3.3 0 8.6q0 0.5 0 1.1-0.1 1.6-0.1 3.3 0 0.6 0 1.2 0 1.6 0 3.3 0 0.6 0 1.1 0 1.7 0 3.3 0 0.6 0 1.2-0.1 1.6-0.1 3.3 0 0.6 0 1.2 0 1.6 0 3.3 0 0.5 0 1.1 0 1.7 0 3.3-0.1 0.6-0.1 1.2 0 1.6 0 3.3 0 0.6 0 1.1 0 1.7 0 3.3 0 0.6 0 1.2-0.1 1.7-0.1 3.3 0 0.6 0 1.2 0 1.6 0 3.3 0 0.5 0 1.1 0 1.7 0 3.3 0 0.6-0.1 1.2 0 1.7 0 3.3 0 0.6 0 1.1 0 1.7 0 3.3 0 0.6 0 1.2-0.1 1.7-0.1 3.3 0 0.6 0 1.2 0 1.7 0 3.3 0 0.6 0 1.1-0.1 1.8-0.1 3.3 0 0.6 0 1.2 0 1.9-0.1 3.3 0 0.6 0 1.2c0 1.5 0 2.4 0 2.5-0.1 0-0.3 0.4-0.7 0.9q-0.4 0.5-1 1.3c-0.8 1.1-1.9 2.4-3.1 3.9q-0.5 0.7-1 1.3c-4.3 5.3-9.2 11.5-9.2 11.5 0 0-1.8-4.4-3.6-9.1q-0.2-0.5-0.4-1.1-0.6-1.5-1.2-3-0.2-0.6-0.4-1.1c-0.4-1.2-0.7-2.2-1-3.1q-0.2-0.6-0.3-1.1-0.1-0.4-0.2-0.7c0-0.3 0-1.2 0.2-2.6q0-0.6 0.1-1.2 0.2-1.5 0.5-3.4 0.1-0.6 0.2-1.2 0.3-1.6 0.6-3.4 0.1-0.6 0.2-1.2 0.3-1.6 0.6-3.4 0.1-0.6 0.2-1.2 0.3-1.7 0.6-3.4 0.1-0.6 0.3-1.2 0.3-1.7 0.6-3.4 0.1-0.6 0.2-1.2 0.3-1.7 0.7-3.4 0.1-0.6 0.2-1.2 0.3-1.7 0.7-3.5 0.1-0.6 0.2-1.2 0.3-1.7 0.7-3.4 0.1-0.6 0.2-1.2 0.3-1.7 0.7-3.4 0.1-0.6 0.2-1.2 0.3-1.7 0.7-3.4 0.1-0.6 0.2-1.2 0.4-1.7 0.7-3.4 0.1-0.6 0.2-1.2 0.4-1.8 0.7-3.5 0.1-0.6 0.3-1.2 0.3-1.7 0.7-3.4 0.1-0.6 0.2-1.2 0.4-1.7 0.7-3.4 0.1-0.6 0.2-1.2 0.4-1.8 0.7-3.4 0.1-0.6 0.3-1.2 0.3-1.8 0.7-3.5 0.1-0.6 0.2-1.2 0.2-0.8 0.3-1.5c1.1-5.5 1.9-8.9 1.9-8.9z"/>
									<path id="&lt;Path&gt;" class="s12" d="m512.9 474.4c0 0-0.6 87.4-0.8 88.1-0.3 0.6-15 18.9-15 18.9l6.8-21.4c0 0 3.5-53.5 5.3-76-1.4 0.1-3-0.4-4.5-1 1.1-5.5 1.9-8.9 1.9-8.9z"/>
									<g id="&lt;Group&gt;" style="mix-blend-mode: multiply">
										<path id="&lt;Path&gt;" class="s12" d="m512.9 483q0 0.5 0 1.1l-8.7 1.6q0.1-0.6 0.2-1.2z"/>
										<path id="&lt;Path&gt;" class="s12" d="m512.8 487.4q0 0.6 0 1.2l-9.6 1.8q0.1-0.6 0.3-1.2z"/>
										<path id="&lt;Path&gt;" class="s12" d="m512.8 491.9q0 0.6 0 1.1l-10.5 2q0.1-0.6 0.2-1.2z"/>
										<path id="&lt;Path&gt;" class="s12" d="m512.8 496.3q0 0.6 0 1.2l-11.4 2.1q0.1-0.6 0.2-1.2z"/>
										<path id="&lt;Path&gt;" class="s12" d="m512.7 500.8q0 0.6 0 1.2l-12.3 2.2q0.1-0.6 0.3-1.2z"/>
										<path id="&lt;Path&gt;" class="s12" d="m512.7 505.3q0 0.5 0 1.1l-13.2 2.5q0.1-0.6 0.2-1.2z"/>
										<path id="&lt;Path&gt;" class="s12" d="m512.7 509.7q-0.1 0.6-0.1 1.2l-14 2.6q0.1-0.6 0.2-1.2z"/>
										<path id="&lt;Path&gt;" class="s12" d="m512.6 514.2q0 0.6 0 1.1l-14.9 2.8q0.1-0.6 0.2-1.2z"/>
										<path id="&lt;Path&gt;" class="s12" d="m512.6 518.6q0 0.6 0 1.2l-15.8 2.9q0.1-0.6 0.2-1.2z"/>
										<path id="&lt;Path&gt;" class="s12" d="m512.5 523.1q0 0.6 0 1.2l-16.6 3q0.1-0.6 0.2-1.2z"/>
										<path id="&lt;Path&gt;" class="s12" d="m512.5 527.6q0 0.5 0 1.1l-17.5 3.3q0.1-0.6 0.2-1.2z"/>
										<path id="&lt;Path&gt;" class="s12" d="m512.5 532q0 0.6-0.1 1.2l-18.3 3.4q0.1-0.6 0.2-1.2z"/>
										<path id="&lt;Path&gt;" class="s12" d="m512.4 536.5q0 0.6 0 1.1l-19.2 3.6q0.1-0.6 0.3-1.2z"/>
										<path id="&lt;Path&gt;" class="s12" d="m512.4 540.9q0 0.6 0 1.2l-20 3.7q0.1-0.6 0.2-1.2z"/>
										<path id="&lt;Path&gt;" class="s12" d="m512.3 545.4q0 0.6 0 1.2l-20.7 3.8q0.1-0.6 0.2-1.2z"/>
										<path id="&lt;Path&gt;" class="s12" d="m512.3 549.9q0 0.6 0 1.1l-21.5 4q0.1-0.6 0.2-1.2z"/>
										<path id="&lt;Path&gt;" class="s12" d="m512.2 554.3q0 0.6 0 1.2l-22 4.1q0-0.6 0.1-1.2z"/>
										<path id="&lt;Path&gt;" class="s12" d="m512.1 558.8q0 0.6 0 1.2l-21.6 4q-0.2-0.6-0.3-1.1z"/>
										<path id="&lt;Path&gt;" class="s12" d="m511.4 563.4q-0.4 0.5-1 1.3l-18.5 3.5q-0.2-0.6-0.4-1.1z"/>
										<path id="&lt;Path&gt;" class="s12" d="m507.3 568.6q-0.5 0.7-1 1.3l-12.8 2.4q-0.2-0.5-0.4-1.1z"/>
									</g>
								</g>
								<g id="&lt;Group&gt;">
									<path id="&lt;Path&gt;" class="s6" d="m521.5 468.3c0.1 0.9-1 3-2.4 4.8-0.8 1-1.6 1.9-2.4 2.6-2.3 1.9-4.9 4.2-9.5 2.7-2.4-0.7-3.8-2.9-4.6-4.8-0.7-1.8-0.9-3.4-0.9-3.7 0.8-4.2 6.3-6.9 9.5-7.3 3.2-0.5 10.2 4.4 10.3 5.7z"/>
									<path id="&lt;Path&gt;" class="s12" d="m521.5 468.3c0.1 0.9-1 3-2.4 4.8-3.4 1.5-7.7 3-9.2 2.9-2.6-0.2-4.6-2.5-5.3-2.9-0.4-0.1-1.3 0.1-2 0.5-0.7-1.8-0.9-3.4-0.9-3.7 0.8-4.2 6.3-6.9 9.5-7.3 3.2-0.5 10.2 4.4 10.3 5.7z"/>
								</g>
							</g>
							<g id="&lt;Group&gt;">
								<g id="&lt;Group&gt;">
									<path id="&lt;Path&gt;" class="s9" d="m541.6 418.6c-2.6 3.9-5.5 6.9-8.6 9.2-16.4 12.4-37.9 4.5-43.6 0.7q-0.2-0.2-0.4-0.3c-5.8-4.4-5.7-15.8-5.1-20.9 1-7.6 6.5-10.2 6.8-10.3-0.4 0-8.5 1.2-8.2-1.1 5.5-9.8 19.1-13.4 26.4-13.7 7.2-0.4 18.8 3.9 23.8 13 16.7 7.1 8.9 23.4 8.9 23.4z"/>
									<path id="&lt;Path&gt;" class="s10" d="m536.8 423.4l-0.3-1q-1.6 3.1-3.5 5.4c-16.4 12.4-37.9 4.5-43.6 0.7-1.1-2.3-1.9-5.1-2.5-8.4-3-20.1 11.6-26.6 11.6-26.6 0 0-9.3 0.8-10.5 0.9-1.1 0.1 1-6.5 12.8-8.4 24.8-3.9 29.4 15 29.4 15 0 0 5.3 0.8 8.1 6.2 2.7 5.4-1.5 16.2-1.5 16.2z"/>
								</g>
								<g id="&lt;Group&gt;">
									<path id="&lt;Path&gt;" class="s4" d="m508.6 451.7c0 0-10.3 5.5-11.7 9.7-1.5 4.1-2.1 15.5-2.1 15.5 0 0 7.5-7.9 10.1-7.3 2.7 0.6 4.6 2.5 4.6 2.5 0 0 6-4.9 8.9-2.7 3 2.2 8.4 9.1 8.4 9.1 0 0 7.8-9.8 8.7-15.1 0.9-5.3-8.5-13.6-11.9-14.5-3.4-0.9-15 2.8-15 2.8z"/>
									<g id="&lt;Group&gt;">
										<path id="&lt;Path&gt;" class="s8" d="m526.4 459.9c-1.7 3.7-4.7 6.4-9.3 7.2-6.3 1-10 0.4-12.8-3.8-2.7-4.3 1.8-7.5 1.8-8.4q0-0.3 0-0.6c-0.3-3.9-1.6-12.3-1.6-12.3l19.7-3.8c0 0.2 0.6 5.8 1.6 10.5 0.3 1.5 0.6 2.9 1 4 0.7 2.4 0.6 4.9-0.4 7.2z"/>
										<path id="&lt;Path&gt;" class="s6" d="m525.8 448.7c-2.2 1.5-5.4 3.1-9.6 4.1-3.8 0.8-7.4 1.3-10.1 1.5-0.3-3.9-1.6-12.3-1.6-12.3l19.7-3.8c0 0.2 0.6 5.8 1.6 10.5z"/>
									</g>
									<g id="&lt;Group&gt;">
										<path id="&lt;Path&gt;" class="s8" d="m532 428.1c-0.5 4.6-1.4 9.7-3.3 12.6-3.9 6-20.2 9.1-23.3 9.4-3.1 0.2-7.1 0.5-11-4.2-2.3-2.8-4.1-16.1-4.4-26.5q0-0.7 0-1.4c-0.1-6 4.7-10.8 10.7-10.9 6.8 0 15.1 0.1 19.7 0.2 2 0.1 3.7 1.4 4.3 3.3 0.3 1.2 0.8 2.6 1.5 4.1 0.9 1.8 2.4 2.8 3.6 3.3 1.6 0.7 2.6 2.2 2.6 3.9-0.1 1.7-0.2 3.9-0.4 6.2z"/>
										<path id="&lt;Path&gt;" class="s5" d="m532 428.1l-1.1-6.9c0 0-0.8 0.2-4.5-1.1-3.8-1.4-5.6-8.5-6.6-9.2-1-0.6-15.7-1.1-22.9 0.7-4.1 1-6 4.7-6.9 7.8q0-0.7 0-1.4c-0.1-6 4.7-10.8 10.7-10.9 6.8 0 15.1 0.1 19.7 0.2 2 0.1 3.7 1.4 4.3 3.3 0.3 1.2 0.8 2.6 1.5 4.1 0.9 1.8 2.4 2.8 3.6 3.3 1.6 0.7 2.6 2.2 2.6 3.9-0.1 1.7-0.2 3.9-0.4 6.2z"/>
									</g>
									<path id="&lt;Path&gt;" class="s6" d="m499.9 436.8c0 0 2.5 2.5 7.1 2.2 4.6-0.3 6.9-6.5 6.9-6.5 0 0-5.4 5.1-14 4.3z"/>
									<path id="&lt;Path&gt;" class="s6" d="m503.2 416.7c-0.6-0.1-1.3 12.5-0.7 12.9 0.6 0.5 6.2 0.5 5.9-0.3-0.4-0.7-3.5-0.5-4.2-1.1-0.7-0.6-0.4-11.4-1-11.5z"/>
									<g id="&lt;Group&gt;">
										<path id="&lt;Path&gt;" class="s15" d="m513.7 419.4c-1.4-0.7-3.2 0.2-3.5 1.8-0.1 1 0.4 2 1.2 2.5 1 0.7 2.6 0.4 3.3-0.6 0.9-1.2 0.5-3.1-1-3.7z"/>
										<path id="&lt;Path&gt;" class="s15" d="m509.1 416.5c0 0 2.5-1 4.3-0.7 1.7 0.2 4.2 1.5 4.2 1.5 0 0-1.2-3.5-3.9-3.9-2.8-0.3-4.6 3.1-4.6 3.1z"/>
									</g>
									<g id="&lt;Group&gt;">
										<path id="&lt;Path&gt;" class="s15" d="m498.3 419.4c-1.4-0.7-3.2 0.2-3.4 1.8-0.2 1 0.3 2 1.1 2.5 1 0.7 2.6 0.4 3.3-0.6 0.9-1.2 0.5-3.1-1-3.7z"/>
										<path id="&lt;Path&gt;" class="s15" d="m493.4 416.8c0 0 2.3-1.2 3.9-1.1 1.7 0.1 4.1 1 4.1 1 0 0-1.4-3.2-4-3.2-2.7-0.1-4 3.3-4 3.3z"/>
									</g>
									<g id="&lt;Group&gt;">
										<path id="&lt;Path&gt;" class="s8" d="m539.4 415.3c2.8-0.2 5.1 3.2 4.8 8-0.3 4.7-5.1 10.9-7.9 11.1-2.9 0.2-4.4-0.2-5.3-2-0.9-1.8 3.2-16.6 8.4-17.1z"/>
										<path id="&lt;Path&gt;" class="s6" d="m541.1 422.8c0-0.3 0.5-3.7-1.5-4.4-1.9-0.6-4.2 5.3-4.9 7 2.2-0.9 3.2 0.8 3.3 2.1 0 1.2-2.2 4.3-4.8 2.2-0.5 1.5-0.5 1.5-0.5 1.5 0 0 3.7 1.5 5.9-1.4 2.2-2.9-0.5-5.5-2-5.6 0.8-1.7 1.9-3.6 2.6-3.6 0.9 0 1.9 2.2 1.9 2.2z"/>
									</g>
									<g id="&lt;Group&gt;">
										<path id="&lt;Path&gt;" class="s8" d="m483.9 415.3c-2.9-0.2-5.2 3.2-4.9 8 0.4 4.7 5.1 10.9 8 11.1 2.8 0.2 4.4-0.2 5.3-2 0.8-1.8-3.2-16.6-8.4-17.1z"/>
										<path id="&lt;Path&gt;" class="s6" d="m482.1 422.8c0-0.3-0.5-3.7 1.5-4.4 2-0.6 4.3 5.3 4.9 7-2.1-0.9-3.1 0.8-3.2 2.1-0.1 1.2 2.1 4.3 4.8 2.2 0.4 1.5 0.4 1.5 0.4 1.5 0 0-3.7 1.5-5.9-1.4-2.2-2.9 0.6-5.5 2-5.6-0.7-1.7-1.9-3.6-2.6-3.6-0.9 0-1.9 2.2-1.9 2.2z"/>
									</g>
								</g>
							</g>
						</g>
					</g>
				</g>
				<g id="&lt;Group&gt;">
					<path id="&lt;Path&gt;" class="s11" d="m710.6 566.4c0.7 0.1 2.6 3.5 2.6 3.5l-8.3 5.7h-113.4l4-4-3.1-5.3 4.4-2-4.8-4.7 4.7-4.8-3.4-5.6 3.2-2.2-1.9-3 2-2.4-5.7-1.8 5.3-3.3-3.4-3.3 3-2-4.9-3.2 6-2.1-3.6-2 3.3-2.3-3.1-3.3 4.3-1.5-3.8-2.7 3.2-2.6-0.9-2.3 64.4-0.4 51.8-0.4-2.3 2.7 3.4 3.6-3.2 3.4 4.8 5.5-3.7 4 3.5 3.6-4.4 2.2 4.9 3.4-4.5 3.6 2.8 4.8-3.6 2 5.7 6.7-5.5 3.2 3.6 6.3c0 0-4.2 2.8-3.4 3z"/>
					<path id="&lt;Path&gt;" class="s14" d="m710.6 566.4c0.7 0.1 2.6 3.5 2.6 3.5l-8.3 5.7h-47l6.9-3.7-5.8-1.8 5.5-3.1-5.5-2.9 4-3.6-5.5-1 6.3-4.2-7-3.1 8-5.7h-9.1l11-4.1-6.2-1.8 6.5-3.4-8-2.4 6.2-3.3-3.6-3.4 6.2-4.1-9.5-3.7 9.5-4.4-6.6-2.3 5.1-2.1-5.6-2.7 51.8-0.4-2.3 2.7 3.4 3.6-3.2 3.4 4.8 5.5-3.7 4 3.5 3.6-4.4 2.2 4.9 3.4-4.5 3.6 2.8 4.8-3.6 2 5.7 6.7-5.5 3.2 3.6 6.3c0 0-4.2 2.8-3.4 3z"/>
					<path id="&lt;Path&gt;" class="s22" d="m603.9 516.7h99.6c0 0-80.3 9.8-99.6 0z"/>
					<path id="&lt;Path&gt;" class="s14" d="m603.5 528.1c0 0 12-4 37.3-0.9-10 3.3-37.3 0.9-37.3 0.9z"/>
					<path id="&lt;Path&gt;" class="s22" d="m601.8 562.3c0 0 12-3.9 37.3-0.8-10 3.3-37.3 0.8-37.3 0.8z"/>
					<path id="&lt;Path&gt;" class="s14" d="m625.4 547.3c0-1.9 79.3-2.4 83-0.4-3.9 2.5-83 2.3-83 0.4z"/>
				</g>
				<g id="&lt;Group&gt;">
					<path id="&lt;Path&gt;" class="s11" d="m297.7 543.6c-1.7-1.7-1.8-4.6-0.9-6.8 0.9-2.3 2.6-4.1 4.1-6 1.6-1.8 3.1-3.9 3.6-6.2 0.8-4.6-2.5-9.8-0.1-13.8 2.3-3.7 8.1-3.7 10.5-7.4 1.5-2.4 1-5.6 1-8.4 0.1-6 3.3-11.9 8.3-15.1 5-3.2 11.8-3.5 17-0.7 10.2 5.5 11.4 22.8-0.1 27.7-1.8 0.8-3.8 1.2-5.7 1.9-1.9 0.7-3.7 1.9-4.6 3.7-1.4 2.9 0.1 6.7-1.7 9.4-2.1 3.3-7.3 2.4-10.7 4.6-2.2 1.3-3.4 3.8-4.2 6.3-0.8 2.4-1.3 5-2.7 7.2-2.7 4-9.4 4.7-13.8 3.6z"/>
					<g id="&lt;Group&gt;">
						<path id="&lt;Path&gt;" class="s14" d="m291.7 567.7v7.9h22.4l-0.6-8.5z"/>
						<path id="&lt;Path&gt;" class="s14" d="m293.2 571.4h-6c-5.3 0-9.8-3.9-10.6-9.2l-1.1-7.6c-0.7-4.5 2.8-8.5 7.2-8.5h9v4h-9.4c-2 0-3.5 1.8-3.2 3.8l1.1 6.9c0.6 4 4 6.9 8 6.9h4.6z"/>
						<path id="&lt;Path&gt;" class="s11" d="m319.4 539.7v25.7c0 3.3-2.7 6-6 6h-20.2c-3.3 0-5.9-2.6-6-5.8l-0.7-25.9z"/>
						<path id="&lt;Path&gt;" class="s14" d="m319.4 539.7v25.7c0 3.3-2.7 6-6 6h-5.6v-31.7z"/>
					</g>
				</g>
				<g id="&lt;Group&gt;">
					<g id="&lt;Group&gt;">
						<path id="&lt;Path&gt;" class="s14" d="m602.5 582.2v228h-10.2v-228z"/>
						<path id="&lt;Path&gt;" class="s11" d="m713.3 582.2v223.3h-10.3v-223.3z"/>
						<path id="&lt;Path&gt;" class="s14" d="m275.6 810.2h-10.3v-228h10.3z"/>
					</g>
					<path id="&lt;Path&gt;" class="s14" d="m713.8 653.6v-67.4h-118.1v67.4z"/>
					<path id="&lt;Path&gt;" class="s14" d="m265.3 575.6v78h103.7c13.8 0 27-5.5 36.7-15.2h68.5l0.9 0.8c9.7 9.2 22.6 14.4 35.9 14.3 32.5-0.1 91.3-0.3 91.3 0.1 0 0.6 0-78 0-78z"/>
					<path id="&lt;Path&gt;" class="s23" d="m725.9 575.6v28.2h-460.6v-28.2z"/>
					<path id="&lt;Path&gt;" class="s24" d="m725.9 575.6v28.2h-123.6v-28.2z"/>
					<path id="&lt;Path&gt;" class="s14" d="m713.3 765.8v10.2h-121v-10.2z"/>
				</g>
			</g>
			<g id="&lt;Group&gt;">
				<g id="&lt;Group&gt;">
					<path id="&lt;Path&gt;" class="s17" d="m629.2 666.3c1.5 8.6-1.9 19 4.1 25.4 4.2 4.4 11.5 4.9 15.3 9.6 4 5.2 2.1 12.5 1.8 19-0.4 9.6 3.5 19.2 10.1 26.2 3.4 3.5 10.1 10.7 15.9 10.9 1.4 0.1 2.7-0.3 4-1.2q0.6-0.4 1.1-0.9c10.6-9.5 8.8-30.3 2.6-41.2-4.2-7.4-11.1-14.1-11.3-22.6-0.1-6.8 4.3-13.3 3.2-20-1.5-9.1-11.8-13.6-16.9-21.2-7.1-10.5-3.5-25.5-9.8-36.5-5.3-9.2-17.7-13.6-27.6-9.7-9.9 3.9-16 15.6-13.6 25.9 3.2 13.8 18.6 22.4 21.1 36.3z"/>
					<path id="&lt;Path&gt;" class="s18" d="m676.4 757.4c1.4 0.1 2.7-0.3 4-1.2q0.6-0.4 1.1-0.9c-0.8-2.7-1.7-5.4-2.5-8-1.9-6.3-3.7-12.6-5.7-18.9-4-12.3-8.2-24.6-12.7-36.7q-6.7-18.2-14.2-36.1-3.7-8.9-7.6-17.6c-2.7-5.9-5-12.4-8.6-17.7-1.5-2.2-5-0.8-4.2 1.8 1.7 6.2 5 12.2 7.6 18.1q3.9 9.1 7.7 18.2 7.4 17.6 14 35.5c4.4 11.9 8.6 23.9 12.6 36 2.1 6.3 4.1 12.5 6.1 18.8 0.8 2.8 1.5 5.8 2.4 8.7z"/>
				</g>
				<g id="&lt;Group&gt;">
					<path id="&lt;Path&gt;" class="s19" d="m710.8 656.7c1.7 8.6 8.6 17 5.3 25.2-2.3 5.6-8.9 8.7-10.7 14.5-1.9 6.2 2.5 12.3 5.2 18.3 3.9 8.8 3.7 19.2 0 28.1-1.8 4.4-5.4 13.6-10.7 15.9-1.3 0.6-2.7 0.8-4.2 0.4q-0.7-0.2-1.4-0.5c-13.3-5-19.2-25-17.4-37.4 1.2-8.5 5.3-17.2 2.3-25.2-2.4-6.4-8.8-10.8-10.2-17.5-1.9-9 6.1-16.9 8.1-25.8 2.8-12.5-6.1-25.1-4.1-37.6 1.6-10.5 11.6-19.1 22.2-19 10.6 0 20.5 8.6 22 19.1 2.1 14-9.2 27.6-6.4 41.5z"/>
					<path id="&lt;Path&gt;" class="s17" d="m699.9 758.7c-1.3 0.6-2.7 0.8-4.2 0.4q-0.7-0.2-1.4-0.5c-0.2-2.8-0.3-5.7-0.5-8.4-0.6-6.5-1.2-13.1-1.6-19.6-0.8-12.9-1.3-25.9-1.5-38.8q-0.3-19.4 0.1-38.8 0.2-9.6 0.7-19.2c0.3-6.4 0.1-13.3 1.6-19.6 0.6-2.5 4.4-2.5 4.6 0.2 0.7 6.4-0.3 13.2-0.5 19.6q-0.4 9.9-0.6 19.7-0.5 19.1-0.2 38.2c0.2 12.7 0.7 25.4 1.4 38.1 0.3 6.6 0.7 13.2 1.2 19.7 0.2 3 0.6 6 0.9 9z"/>
				</g>
				<g id="&lt;Group&gt;">
					<path id="&lt;Path&gt;" class="s17" d="m762.1 666.3c-1.6 8.6 1.9 19-4.2 25.4-4.2 4.4-11.4 4.9-15.2 9.6-4 5.2-2.2 12.5-1.8 19 0.4 9.6-3.6 19.2-10.2 26.2-3.3 3.5-10 10.7-15.8 10.9-1.4 0.1-2.8-0.3-4-1.2q-0.6-0.4-1.2-0.9c-10.5-9.5-8.8-30.3-2.6-41.2 4.2-7.4 11.2-14.1 11.3-22.6 0.1-6.8-4.2-13.3-3.1-20 1.5-9.1 11.7-13.6 16.9-21.2 7.1-10.5 3.4-25.5 9.8-36.5 5.3-9.2 17.7-13.6 27.6-9.7 9.9 3.9 16 15.6 13.6 25.9-3.2 13.8-18.6 22.4-21.1 36.3z"/>
					<path id="&lt;Path&gt;" class="s18" d="m714.9 757.4c-1.4 0.1-2.8-0.3-4-1.2q-0.6-0.4-1.2-0.9c0.9-2.7 1.8-5.4 2.6-8 1.8-6.3 3.7-12.6 5.7-18.9 3.9-12.3 8.2-24.6 12.7-36.7q6.7-18.2 14.1-36.1 3.7-8.9 7.7-17.6c2.6-5.9 4.9-12.4 8.6-17.7 1.4-2.2 4.9-0.8 4.2 1.8-1.7 6.2-5.1 12.2-7.6 18.1q-3.9 9.1-7.8 18.2-7.3 17.6-13.9 35.5c-4.5 11.9-8.6 23.9-12.6 36-2.1 6.3-4.2 12.5-6.1 18.8-0.9 2.8-1.6 5.8-2.4 8.7z"/>
				</g>
				<path id="&lt;Path&gt;" class="s9" d="m648.5 747.7c0 0 1.4 41.4 12.4 48.9 16.8 0 55.9 0 72.7 0 11-7.5 12.3-48.9 12.3-48.9z"/>
				<path id="&lt;Path&gt;" class="s14" d="m645.2 786l2.9 10.5c2.2 8.1 9.6 13.7 18 13.7h62.3c8.4 0 15.7-5.6 17.9-13.7l2.9-10.5z"/>
			</g>
			<g id="&lt;Group&gt;">
				<g id="&lt;Group&gt;">
					<path id="&lt;Path&gt;" class="s11" d="m419.5 360.3h-150.4c-6.2 0-11.3 5.1-11.3 11.3v88.2c0 6.2 5.1 11.2 11.3 11.2h140.7l21 21c0 0 0-31.2 0-32.2v-88.2c0-6.2-5.1-11.3-11.3-11.3z"/>
					<path id="&lt;Path&gt;" class="s9" d="m421.8 462.5h-155v-93.8h155z"/>
					<path id="&lt;Path&gt;" class="s25" d="m408 377.7h-128.9c-1 0-1.8-0.8-1.8-1.8 0-1.1 0.8-1.9 1.8-1.9h128.9c1 0 1.9 0.8 1.9 1.9 0 1-0.9 1.8-1.9 1.8z"/>
					<path id="&lt;Path&gt;" class="s25" d="m408 426.9h-128.9c-1 0-1.8-0.9-1.8-1.9 0-1.1 0.8-1.9 1.8-1.9h128.9c1 0 1.9 0.8 1.9 1.9 0 1-0.9 1.9-1.9 1.9z"/>
					<path id="&lt;Path&gt;" class="s19" d="m329.3 387.9h-50.2c-1 0-1.8-0.9-1.8-1.9 0-1 0.8-1.9 1.8-1.9h50.2c1.1 0 1.9 0.9 1.9 1.9 0 1-0.8 1.9-1.9 1.9z"/>
					<path id="&lt;Path&gt;" class="s19" d="m329.3 438.5h-50.2c-1 0-1.8-0.8-1.8-1.8 0-1.1 0.8-1.9 1.8-1.9h50.2c1.1 0 1.9 0.8 1.9 1.9 0 1-0.8 1.8-1.9 1.8z"/>
					<path id="&lt;Path&gt;" class="s19" d="m329.3 449.1h-50.2c-1 0-1.8-0.8-1.8-1.9 0-1 0.8-1.8 1.8-1.8h50.2c1.1 0 1.9 0.8 1.9 1.8 0 1.1-0.8 1.9-1.9 1.9z"/>
					<path id="&lt;Path&gt;" class="s19" d="m342.3 400.9h-50.2c-1 0-1.8-0.9-1.8-1.9 0-1 0.8-1.9 1.8-1.9h50.2c1.1 0 1.9 0.9 1.9 1.9 0 1-0.8 1.9-1.9 1.9z"/>
					<path id="&lt;Path&gt;" class="s19" d="m342.3 415h-50.2c-1 0-1.8-0.9-1.8-1.9 0-1 0.8-1.9 1.8-1.9h50.2c1.1 0 1.9 0.9 1.9 1.9 0 1-0.8 1.9-1.9 1.9z"/>
					<path id="&lt;Path&gt;" class="s19" d="m401.6 400.9h-50.2c-1.1 0-1.9-0.9-1.9-1.9 0-1 0.8-1.9 1.9-1.9h50.2c1 0 1.9 0.9 1.9 1.9 0 1-0.9 1.9-1.9 1.9z"/>
				</g>
				<g id="&lt;Group&gt;">
					<path id="&lt;Path&gt;" class="s11" d="m531.4 242.1h135.5c5.6 0 10.2 4.5 10.2 10.1v79.4c0 5.7-4.6 10.2-10.2 10.2h-126.7l-19 18.9c0 0 0-28.2 0-29.1v-79.4c0-5.6 4.6-10.1 10.2-10.1z"/>
					<path id="&lt;Path&gt;" class="s9" d="m529.3 334.1h139.7v-84.5h-139.7z"/>
					<path id="&lt;Path&gt;" class="s25" d="m573.6 302h71.5c1 0 1.7-0.8 1.7-1.7 0-0.9-0.7-1.7-1.7-1.7h-71.5c-0.9 0-1.7 0.8-1.7 1.7 0 0.9 0.8 1.7 1.7 1.7z"/>
					<path id="&lt;Path&gt;" class="s25" d="m585 268h71.5c0.9 0 1.7-0.8 1.7-1.7 0-0.9-0.8-1.7-1.7-1.7h-71.5c-1 0-1.7 0.8-1.7 1.7 0 0.9 0.7 1.7 1.7 1.7z"/>
					<path id="&lt;Path&gt;" class="s19" d="m612.6 312.5h45.2c1 0 1.7-0.7 1.7-1.7 0-0.9-0.7-1.7-1.7-1.7h-45.2c-0.9 0-1.7 0.8-1.7 1.7 0 1 0.8 1.7 1.7 1.7z"/>
					<path id="&lt;Path&gt;" class="s25" d="m612.6 322h45.2c1 0 1.7-0.7 1.7-1.7 0-0.9-0.7-1.6-1.7-1.6h-45.2c-0.9 0-1.7 0.7-1.7 1.6 0 1 0.8 1.7 1.7 1.7z"/>
					<path id="&lt;Path&gt;" class="s19" d="m556.2 312.5h45.2c1 0 1.7-0.7 1.7-1.7 0-0.9-0.7-1.7-1.7-1.7h-45.2c-0.9 0-1.7 0.8-1.7 1.7 0 1 0.8 1.7 1.7 1.7z"/>
					<path id="&lt;Path&gt;" class="s25" d="m556.2 322h45.2c1 0 1.7-0.7 1.7-1.7 0-0.9-0.7-1.6-1.7-1.6h-45.2c-0.9 0-1.7 0.7-1.7 1.6 0 1 0.8 1.7 1.7 1.7z"/>
					<path id="&lt;Path&gt;" class="s19" d="m612.6 281.2h45.2c1 0 1.7-0.7 1.7-1.6 0-1-0.7-1.7-1.7-1.7h-45.2c-0.9 0-1.7 0.7-1.7 1.7 0 0.9 0.8 1.6 1.7 1.6z"/>
					<path id="&lt;Path&gt;" class="s25" d="m612.6 290.8h45.2c1 0 1.7-0.8 1.7-1.7 0-1-0.7-1.7-1.7-1.7h-45.2c-0.9 0-1.7 0.7-1.7 1.7 0 0.9 0.8 1.7 1.7 1.7z"/>
					<path id="&lt;Path&gt;" class="s19" d="m556.2 281.2h45.2c1 0 1.7-0.7 1.7-1.6 0-1-0.7-1.7-1.7-1.7h-45.2c-0.9 0-1.7 0.7-1.7 1.7 0 0.9 0.8 1.6 1.7 1.6z"/>
					<path id="&lt;Path&gt;" class="s25" d="m556.2 290.8h45.2c1 0 1.7-0.8 1.7-1.7 0-1-0.7-1.7-1.7-1.7h-45.2c-0.9 0-1.7 0.7-1.7 1.7 0 0.9 0.8 1.7 1.7 1.7z"/>
				</g>
				<g id="&lt;Group&gt;">
					<path id="&lt;Path&gt;" class="s11" d="m462.3 273.2h-63.6c-4.3 0-7.8 3.5-7.8 7.8v33.7c0 4.3 3.5 7.8 7.8 7.8h17.6c3.7 0 7 2.2 8.5 5.5l4.1 9.2 4.6-9.4c1.5-3.2 4.8-5.3 8.3-5.3h20.5c4.4 0 7.9-3.5 7.9-7.8v-33.7c0-4.3-3.5-7.8-7.9-7.8z"/>
					<g id="&lt;Group&gt;">
						<path id="&lt;Compound Path&gt;" class="s9" d="m403.2 297.8l12.1 5.7q1 0.5 1.4 0.9 0.4 0.5 0.4 1.2 0 0.8-0.5 1.3-0.5 0.4-1.3 0.4-0.3 0-0.7-0.1-0.4-0.1-1-0.3l-14.6-6.8q-0.1 0-0.4-0.1-1.9-0.9-1.9-2.2 0-1.2 2-2.2l0.2-0.1 14.7-6.8q0.8-0.4 1.1-0.5 0.4-0.1 0.6-0.1 0.8 0 1.3 0.5 0.5 0.5 0.5 1.3 0 0.6-0.4 1.1-0.4 0.5-1.4 1z"/>
						<path id="&lt;Compound Path&gt;" class="s9" d="m437.7 286.4l-10.9 23.3q-0.5 1.1-0.9 1.5-0.5 0.4-1 0.4-0.9 0-1.6-0.5-0.6-0.5-0.6-1.3 0-0.6 0.5-1.7v-0.1l10.9-23.3q0.5-1.1 0.9-1.5 0.5-0.4 1-0.4 0.9 0 1.5 0.5 0.7 0.5 0.7 1.3 0 0.4-0.1 0.7-0.1 0.4-0.4 1.1z"/>
						<path id="&lt;Compound Path&gt;" class="s9" d="m457.2 297.8l-12.1-5.8q-1-0.5-1.4-1-0.4-0.5-0.4-1.1 0-0.8 0.5-1.3 0.4-0.5 1.2-0.5 0.3 0 0.7 0.1 0.4 0.1 1.1 0.5l14.7 6.8 0.1 0.1q2.1 1 2.1 2.2 0 1.3-2 2.2-0.2 0.1-0.3 0.1l-14.7 6.8q-0.5 0.2-0.9 0.3-0.4 0.1-0.8 0.1-0.8 0-1.2-0.4-0.5-0.5-0.5-1.3 0-0.7 0.4-1.2 0.4-0.4 1.4-0.9z"/>
					</g>
				</g>
				<g id="&lt;Group&gt;">
					<g id="&lt;Group&gt;">
						<path id="&lt;Compound Path&gt;" class="s11" d="m250.4 419.5h-6c-0.6 0-1-0.4-1-1 0-0.6 0.4-1 1-1h6c0.5 0 1 0.4 1 1 0 0.6-0.5 1-1 1zm-11.8-1q-0.3 0-0.5-0.1c-2-1.2-3.5-3-4.2-5.1-0.2-0.6 0.1-1.1 0.6-1.3 0.6-0.2 1.1 0.1 1.3 0.7 0.5 1.6 1.7 3 3.3 3.9 0.4 0.3 0.6 0.9 0.3 1.4-0.1 0.3-0.5 0.5-0.8 0.5zm-4.1-10.5c-0.6 0-1-0.4-1-1v-6c0-0.6 0.4-1 1-1 0.5 0 1 0.4 1 1v6c0 0.6-0.5 1-1 1zm0-12c-0.6 0-1-0.4-1-1v-6c0-0.6 0.4-1 1-1 0.5 0 1 0.4 1 1v6c0 0.6-0.5 1-1 1zm0-12c-0.6 0-1-0.4-1-1v-6c0-0.6 0.4-1 1-1 0.5 0 1 0.4 1 1v6c0 0.6-0.5 1-1 1zm0-12c-0.6 0-1-0.4-1-1v-6c0-0.6 0.4-1 1-1 0.5 0 1 0.4 1 1v6c0 0.6-0.5 1-1 1zm0.7-11.9q-0.2 0-0.3-0.1c-0.5-0.1-0.8-0.7-0.7-1.2q1-3.1 3-5.6c0.3-0.5 1-0.5 1.4-0.2 0.4 0.4 0.5 1 0.2 1.4q-1.8 2.3-2.7 5c-0.1 0.4-0.5 0.7-0.9 0.7zm7.3-9.2c-0.4 0-0.7-0.2-0.9-0.5-0.3-0.5-0.1-1.1 0.4-1.4q2.8-1.6 5.9-2.1c0.6-0.1 1.1 0.3 1.2 0.9 0.1 0.5-0.3 1-0.8 1.1q-2.9 0.4-5.3 1.9-0.3 0.1-0.5 0.1zm227.6-2.2c-0.6 0-1-0.4-1-1 0-0.5 0.4-1 1-1q2.9 0 5.5-0.9c0.6-0.2 1.1 0 1.3 0.6 0.2 0.5-0.1 1-0.6 1.2q-3 1.1-6.2 1.1zm-6 0h-6c-0.6 0-1-0.4-1-1 0-0.5 0.4-1 1-1h6c0.5 0 1 0.5 1 1 0 0.6-0.5 1-1 1zm-12 0h-6c-0.6 0-1-0.4-1-1 0-0.5 0.4-1 1-1h6c0.5 0 1 0.5 1 1 0 0.6-0.5 1-1 1zm-12 0h-6c-0.6 0-1-0.4-1-1 0-0.5 0.4-1 1-1h6c0.5 0 1 0.5 1 1 0 0.6-0.5 1-1 1zm-12 0h-6c-0.6 0-1-0.4-1-1 0-0.5 0.4-1 1-1h6c0.5 0 1 0.5 1 1 0 0.6-0.5 1-1 1zm-12 0h-6c-0.6 0-1-0.4-1-1 0-0.5 0.4-1 1-1h6c0.5 0 1 0.5 1 1 0 0.6-0.5 1-1 1zm-12 0h-6c-0.6 0-1-0.4-1-1 0-0.5 0.4-1 1-1h6c0.5 0 1 0.5 1 1 0 0.6-0.5 1-1 1zm-12 0h-6c-0.6 0-1-0.4-1-1 0-0.5 0.4-1 1-1h6c0.5 0 1 0.5 1 1 0 0.6-0.5 1-1 1zm-12 0h-6c-0.6 0-1-0.4-1-1 0-0.5 0.4-1 1-1h6c0.5 0 1 0.5 1 1 0 0.6-0.5 1-1 1zm-12 0h-6c-0.6 0-1-0.4-1-1 0-0.5 0.4-1 1-1h6c0.5 0 1 0.5 1 1 0 0.6-0.5 1-1 1zm-12 0h-6c-0.6 0-1-0.4-1-1 0-0.5 0.4-1 1-1h6c0.5 0 1 0.5 1 1 0 0.6-0.5 1-1 1zm-12 0h-6c-0.6 0-1-0.4-1-1 0-0.5 0.4-1 1-1h6c0.5 0 1 0.5 1 1 0 0.6-0.5 1-1 1zm-12 0h-6c-0.6 0-1-0.4-1-1 0-0.5 0.4-1 1-1h6c0.5 0 1 0.5 1 1 0 0.6-0.5 1-1 1zm-12 0h-6c-0.6 0-1-0.4-1-1 0-0.5 0.4-1 1-1h6c0.5 0 1 0.5 1 1 0 0.6-0.5 1-1 1zm-12 0h-6c-0.6 0-1-0.4-1-1 0-0.5 0.4-1 1-1h6c0.5 0 1 0.5 1 1 0 0.6-0.5 1-1 1zm-12 0h-6c-0.6 0-1-0.4-1-1 0-0.5 0.4-1 1-1h6c0.5 0 1 0.5 1 1 0 0.6-0.5 1-1 1zm-12 0h-6c-0.6 0-1-0.4-1-1 0-0.5 0.4-1 1-1h6c0.5 0 1 0.5 1 1 0 0.6-0.5 1-1 1zm-12 0h-6c-0.6 0-1-0.4-1-1 0-0.5 0.4-1 1-1h6c0.5 0 1 0.5 1 1 0 0.6-0.5 1-1 1zm-12 0h-6c-0.6 0-1-0.4-1-1 0-0.5 0.4-1 1-1h6c0.5 0 1 0.5 1 1 0 0.6-0.5 1-1 1zm221.1-4c-0.3 0-0.6-0.1-0.8-0.3-0.4-0.5-0.3-1.1 0.1-1.4q2.2-1.9 3.7-4.3c0.3-0.5 0.9-0.6 1.4-0.3 0.4 0.2 0.6 0.9 0.3 1.3q-1.6 2.8-4.1 4.8-0.3 0.2-0.6 0.2zm6-10.1q-0.1 0-0.2 0c-0.5-0.1-0.9-0.6-0.8-1.2q0.3-1.5 0.3-3.1v-2.6c0-0.6 0.5-1 1-1 0.6 0 1 0.4 1 1v2.6q0 1.8-0.3 3.5c-0.1 0.5-0.5 0.8-1 0.8zm0.3-11.9c-0.5 0-1-0.5-1-1v-6c0-0.6 0.5-1 1-1 0.6 0 1 0.4 1 1v6c0 0.5-0.4 1-1 1zm0-12c-0.5 0-1-0.5-1-1v-6c0-0.6 0.5-1 1-1 0.6 0 1 0.4 1 1v6c0 0.5-0.4 1-1 1zm0-12c-0.5 0-1-0.5-1-1v-6c0-0.6 0.5-1 1-1 0.6 0 1 0.4 1 1v6c0 0.5-0.4 1-1 1zm0-12c-0.5 0-1-0.5-1-1v-6c0-0.6 0.5-1 1-1 0.6 0 1 0.4 1 1v6c0 0.5-0.4 1-1 1zm0-12c-0.5 0-1-0.5-1-1v-6c0-0.6 0.5-1 1-1 0.6 0 1 0.4 1 1v6c0 0.5-0.4 1-1 1zm0.1-12q0 0-0.1 0c-0.6-0.1-0.9-0.6-0.9-1.2 0.3-2.1 1.2-4.2 2.5-5.9 0.3-0.5 0.9-0.6 1.4-0.2 0.4 0.3 0.5 0.9 0.2 1.4-1.1 1.4-1.8 3.2-2.1 5 0 0.5-0.5 0.9-1 0.9zm6.9-9.3c-0.4 0-0.8-0.2-0.9-0.6-0.3-0.5-0.1-1.1 0.4-1.3q2.7-1.2 5.6-1.2h0.7c0.6 0 1 0.4 1 1 0 0.5-0.4 1-1 1h-0.7q-2.5 0-4.7 1-0.2 0.1-0.4 0.1zm12.5-1.1h-0.7c-0.6 0-1-0.5-1-1 0-0.6 0.4-1 1-1h0.7c0.5 0 1 0.4 1 1 0 0.5-0.5 1-1 1z"/>
						<path id="&lt;Path&gt;" class="s11" d="m253.7 418.9c0 3.1-2.5 5.6-5.5 5.6-3.1 0-5.6-2.5-5.6-5.6 0-3 2.5-5.5 5.6-5.5 3 0 5.5 2.5 5.5 5.5z"/>
						<path id="&lt;Path&gt;" class="s11" d="m508.6 252c0 3.1-2.4 5.5-5.5 5.5-3 0-5.5-2.4-5.5-5.5 0-3 2.5-5.5 5.5-5.5 3.1 0 5.5 2.5 5.5 5.5z"/>
					</g>
					<path id="&lt;Compound Path&gt;" class="s11" d="m649.2 525c-0.6 0-1-0.4-1-1v-5.3c0-0.6 0.4-1 1-1 0.5 0 1 0.4 1 1v5.3c0 0.6-0.5 1-1 1zm0-11.3c-0.6 0-1-0.5-1-1v-6c0-0.6 0.4-1 1-1 0.5 0 1 0.4 1 1v6c0 0.5-0.5 1-1 1zm0-12c-0.6 0-1-0.5-1-1v-6c0-0.6 0.4-1 1-1 0.5 0 1 0.4 1 1v6c0 0.5-0.5 1-1 1zm0-12c-0.6 0-1-0.5-1-1v-6c0-0.6 0.4-1 1-1 0.5 0 1 0.4 1 1v6c0 0.5-0.5 1-1 1zm0-12c-0.6 0-1-0.5-1-1v-6c0-0.6 0.4-1 1-1 0.5 0 1 0.4 1 1v6c0 0.5-0.5 1-1 1zm0-12c-0.6 0-1-0.5-1-1v-6c0-0.6 0.4-1 1-1 0.5 0 1 0.4 1 1v6c0 0.5-0.5 1-1 1zm0-12c-0.6 0-1-0.5-1-1v-6c0-0.6 0.4-1 1-1 0.5 0 1 0.4 1 1v6c0 0.5-0.5 1-1 1zm0-12c-0.6 0-1-0.5-1-1v-6c0-0.6 0.4-1 1-1 0.5 0 1 0.4 1 1v6c0 0.5-0.5 1-1 1zm0-12c-0.6 0-1-0.5-1-1v-6c0-0.6 0.4-1 1-1 0.5 0 1 0.4 1 1v6c0 0.5-0.5 1-1 1zm0-12c-0.6 0-1-0.5-1-1v-6c0-0.6 0.4-1 1-1 0.5 0 1 0.4 1 1v6c0 0.5-0.5 1-1 1zm0-12c-0.6 0-1-0.5-1-1v-6c0-0.6 0.4-1 1-1 0.5 0 1 0.4 1 1v6c0 0.5-0.5 1-1 1zm0-12c-0.6 0-1-0.5-1-1v-6c0-0.6 0.4-1 1-1 0.5 0 1 0.4 1 1v6c0 0.5-0.5 1-1 1zm-0.1-12c-0.5 0-0.9-0.4-1-0.9q-0.2-2.9-1.6-5.3c-0.3-0.5-0.1-1.1 0.4-1.4 0.5-0.3 1.1-0.1 1.4 0.4q1.5 2.8 1.8 6.1c0.1 0.5-0.3 1-0.9 1.1q0 0-0.1 0zm-5.6-10.2q-0.3 0-0.6-0.2-2.3-1.7-5-2.4c-0.6-0.1-0.9-0.7-0.8-1.2 0.2-0.5 0.7-0.9 1.2-0.7q3.2 0.7 5.8 2.7c0.4 0.3 0.5 0.9 0.2 1.4-0.2 0.2-0.5 0.4-0.8 0.4zm-11.4-2.9h-6c-0.5 0-1-0.5-1-1 0-0.6 0.5-1 1-1h6c0.6 0 1 0.4 1 1 0 0.5-0.4 1-1 1zm-12 0h-6c-0.5 0-1-0.5-1-1 0-0.6 0.5-1 1-1h6c0.6 0 1 0.4 1 1 0 0.5-0.4 1-1 1zm-12 0h-6c-0.5 0-1-0.5-1-1 0-0.6 0.5-1 1-1h6c0.6 0 1 0.4 1 1 0 0.5-0.4 1-1 1zm-12 0h-6c-0.5 0-1-0.5-1-1 0-0.6 0.5-1 1-1h6c0.6 0 1 0.4 1 1 0 0.5-0.4 1-1 1zm-12 0h-6c-0.5 0-1-0.5-1-1 0-0.6 0.5-1 1-1h6c0.6 0 1 0.4 1 1 0 0.5-0.4 1-1 1zm-12 0h-6c-0.5 0-1-0.5-1-1 0-0.6 0.5-1 1-1h6c0.6 0 1 0.4 1 1 0 0.5-0.4 1-1 1zm-12 0h-6c-0.5 0-1-0.5-1-1 0-0.6 0.5-1 1-1h6c0.6 0 1 0.4 1 1 0 0.5-0.4 1-1 1zm-12 0h-6c-0.5 0-1-0.5-1-1 0-0.6 0.5-1 1-1h6c0.6 0 1 0.4 1 1 0 0.5-0.4 1-1 1zm-12 0h-6c-0.5 0-1-0.5-1-1 0-0.6 0.5-1 1-1h6c0.6 0 1 0.4 1 1 0 0.5-0.4 1-1 1zm-12 0h-6c-0.5 0-1-0.5-1-1 0-0.6 0.5-1 1-1h6c0.6 0 1 0.4 1 1 0 0.5-0.4 1-1 1zm-12 0h-6c-0.5 0-1-0.5-1-1 0-0.6 0.5-1 1-1h6c0.6 0 1 0.4 1 1 0 0.5-0.4 1-1 1zm-12 0h-6c-0.5 0-1-0.5-1-1 0-0.6 0.5-1 1-1h6c0.6 0 1 0.4 1 1 0 0.5-0.4 1-1 1zm-12 0h-6c-0.5 0-1-0.5-1-1 0-0.6 0.5-1 1-1h6c0.6 0 1 0.4 1 1 0 0.5-0.4 1-1 1zm-12 0h-6c-0.5 0-1-0.5-1-1 0-0.6 0.5-1 1-1h6c0.6 0 1 0.4 1 1 0 0.5-0.4 1-1 1zm-11.9-0.6q-0.2 0-0.3-0.1-3.1-0.9-5.6-3c-0.4-0.4-0.5-1-0.1-1.4 0.4-0.4 1-0.5 1.4-0.1q2.2 1.8 4.9 2.6c0.5 0.2 0.8 0.7 0.6 1.3-0.1 0.4-0.5 0.7-0.9 0.7zm-8.9-7.6c-0.3 0-0.7-0.2-0.9-0.6q-1.4-2.9-1.5-6.1c0-0.6 0.4-1.1 1-1.1 0.5 0 1 0.4 1 1q0.1 2.8 1.3 5.4c0.3 0.5 0.1 1.1-0.4 1.3q-0.3 0.1-0.5 0.1zm-1.4-11.8c-0.5 0-1-0.4-1-1v-6c0-0.5 0.5-1 1-1 0.6 0 1 0.5 1 1v6c0 0.6-0.4 1-1 1zm0-12c-0.5 0-1-0.4-1-1v-6c0-0.5 0.5-1 1-1 0.6 0 1 0.5 1 1v6c0 0.6-0.4 1-1 1z"/>
				</g>
			</g>
		</g>
	</g>
	<g id="DESIGN BY FREEPIK">
		<g id="&lt;Group&gt;">
			<g id="&lt;Group&gt;">
				<g id="&lt;Group&gt;">
				</g>
			</g>
			<g id="&lt;Group&gt;">
			</g>
		</g>
	</g>
</svg>